{"asset":{"version":"2.0","generator":"babylon.js glTF exporter for 3dsmax 2022 v20210811.2"},"extensionsUsed":["KHR_texture_transform"],"extensionsRequired":["KHR_texture_transform"],"scene":0,"scenes":[{"nodes":[0,7,8,9,24,25]}],"nodes":[{"children":[1,2,3,4,5,6],"translation":[3.14903264E-06,0.2,0.693490446],"name":"building"},{"mesh":0,"translation":[4.84466547E-08,-0.15,-0.000313934317],"scale":[1.0,0.999,1.0],"name":"floor_0"},{"mesh":1,"translation":[4.84466547E-08,-0.0499999523,-0.000313934317],"scale":[1.0,0.999,1.0],"name":"floor_1"},{"mesh":2,"translation":[4.84466547E-08,0.15,-0.00031383743],"scale":[1.0,0.999,1.0],"name":"floor_3"},{"mesh":3,"translation":[-4.84466547E-08,0.0500000976,-0.000313934317],"scale":[1.0,0.999,1.0],"name":"floor_2"},{"mesh":4,"translation":[-0.6969167,-0.19995001,-0.218459919],"name":"room2"},{"mesh":5,"translation":[0.6969156,-0.19995001,-0.218459532],"name":"room1"},{"mesh":6,"translation":[0.0,0.0,-0.319495171],"name":"building_base"},{"mesh":7,"translation":[0.0,0.0,-0.319495171],"name":"park"},{"children":[10,11,12,13,14,15,16,17,18,19,20,21,22,23],"translation":[-0.237399027,0.180328339,-1.07565272],"name":"trees"},{"mesh":8,"translation":[0.718269348,-0.180328339,-0.2592022],"scale":[1.22592854,1.22592854,1.22592854],"name":"tree00"},{"mesh":9,"translation":[0.6841273,-0.180328339,-0.551938],"scale":[1.52245,1.52245,1.52245],"name":"tree01"},{"mesh":10,"translation":[0.418178767,-0.180328339,-0.5080231],"rotation":[0.0,0.461748719,0.0,0.887010753],"scale":[1.52244961,1.3918364,1.52244961],"name":"tree02"},{"mesh":11,"translation":[0.8135077,-0.180328339,-0.759715259],"rotation":[0.0,0.5735765,0.0,0.819152],"scale":[1.52245009,1.34048939,1.52245009],"name":"tree03"},{"mesh":12,"translation":[0.9063408,-0.180328339,-0.00300272368],"scale":[1.52245,1.30888236,1.52245],"name":"tree04"},{"mesh":13,"translation":[0.8153918,-0.180328339,0.2262515],"rotation":[0.0,0.7071068,0.0,0.7071067],"scale":[1.52245,1.52245,1.52245],"name":"tree005"},{"mesh":14,"translation":[1.03463662,-0.180328339,0.456706434],"rotation":[0.0,-0.6755903,0.0,0.737277269],"scale":[1.52245009,1.39150965,1.52245009],"name":"tree006"},{"mesh":15,"translation":[0.101842061,-0.180328339,-0.638903439],"rotation":[0.0,-0.6755901,0.0,0.737277448],"scale":[1.52245009,1.52245,1.52245009],"name":"tree007"},{"mesh":16,"translation":[-0.430204928,-0.180328339,-0.634704053],"scale":[1.52245,1.52245,1.52245],"name":"tree008"},{"mesh":17,"translation":[-1.03183234,-0.180328339,0.1761375],"rotation":[0.0,0.6755902,0.0,0.7372773],"scale":[1.52245009,1.14208293,1.52245009],"name":"tree009"},{"mesh":18,"translation":[-0.5283792,-0.180328339,0.366221249],"rotation":[0.0,-0.9063078,0.0,-0.42261824],"scale":[1.75812519,1.75812519,1.75812519],"name":"tree010"},{"mesh":19,"translation":[-0.5284553,-0.180328339,-0.231642827],"rotation":[0.0,-0.999048233,0.0,0.04361966],"scale":[1.37600827,1.37600827,1.37600827],"name":"tree011"},{"mesh":20,"translation":[-0.996295,-0.180328339,-0.354881048],"rotation":[0.0,-0.7071068,0.0,0.7071067],"scale":[1.52245,1.52245,1.52245],"name":"tree012"},{"mesh":21,"translation":[-0.6138037,-0.180328339,0.7746788],"rotation":[0.0,-0.866025448,0.0,-0.49999994],"scale":[1.52245009,1.52245,1.52245009],"name":"tree013"},{"mesh":22,"translation":[-0.102089427,0.0,-0.7384933],"name":"paths_Retopo"},{"mesh":23,"translation":[-0.5981985,0.0009999999,-0.5609341],"name":"Line001_Retopo"}],"meshes":[{"primitives":[{"attributes":{"POSITION":1,"NORMAL":2,"TEXCOORD_0":3},"indices":0,"material":0}],"name":"floor_0"},{"primitives":[{"attributes":{"POSITION":5,"NORMAL":6,"TEXCOORD_0":7},"indices":4,"material":0}],"name":"floor_1"},{"primitives":[{"attributes":{"POSITION":9,"NORMAL":10,"TEXCOORD_0":11},"indices":8,"material":0}],"name":"floor_3"},{"primitives":[{"attributes":{"POSITION":13,"NORMAL":14,"TEXCOORD_0":15},"indices":12,"material":0}],"name":"floor_2"},{"primitives":[{"attributes":{"POSITION":17,"NORMAL":18,"TEXCOORD_0":19},"indices":16,"material":1}],"name":"room2"},{"primitives":[{"attributes":{"POSITION":21,"NORMAL":22,"TEXCOORD_0":23},"indices":20,"material":1}],"name":"room1"},{"primitives":[{"attributes":{"POSITION":25,"NORMAL":26,"TEXCOORD_0":27},"indices":24,"material":2}],"name":"building_base"},{"primitives":[{"attributes":{"POSITION":29,"NORMAL":30,"TEXCOORD_0":31},"indices":28,"material":3}],"name":"park"},{"primitives":[{"attributes":{"POSITION":33,"NORMAL":34,"TEXCOORD_0":35},"indices":32,"material":4}],"name":"tree00"},{"primitives":[{"attributes":{"POSITION":37,"NORMAL":38,"TEXCOORD_0":39},"indices":36,"material":4}],"name":"tree01"},{"primitives":[{"attributes":{"POSITION":41,"NORMAL":42,"TEXCOORD_0":43},"indices":40,"material":4}],"name":"tree02"},{"primitives":[{"attributes":{"POSITION":45,"NORMAL":46,"TEXCOORD_0":47},"indices":44,"material":4}],"name":"tree03"},{"primitives":[{"attributes":{"POSITION":49,"NORMAL":50,"TEXCOORD_0":51},"indices":48,"material":4}],"name":"tree04"},{"primitives":[{"attributes":{"POSITION":53,"NORMAL":54,"TEXCOORD_0":55},"indices":52,"material":4}],"name":"tree005"},{"primitives":[{"attributes":{"POSITION":57,"NORMAL":58,"TEXCOORD_0":59},"indices":56,"material":4}],"name":"tree006"},{"primitives":[{"attributes":{"POSITION":61,"NORMAL":62,"TEXCOORD_0":63},"indices":60,"material":4}],"name":"tree007"},{"primitives":[{"attributes":{"POSITION":65,"NORMAL":66,"TEXCOORD_0":67},"indices":64,"material":4}],"name":"tree008"},{"primitives":[{"attributes":{"POSITION":69,"NORMAL":70,"TEXCOORD_0":71},"indices":68,"material":4}],"name":"tree009"},{"primitives":[{"attributes":{"POSITION":73,"NORMAL":74,"TEXCOORD_0":75},"indices":72,"material":4}],"name":"tree010"},{"primitives":[{"attributes":{"POSITION":77,"NORMAL":78,"TEXCOORD_0":79},"indices":76,"material":4}],"name":"tree011"},{"primitives":[{"attributes":{"POSITION":81,"NORMAL":82,"TEXCOORD_0":83},"indices":80,"material":4}],"name":"tree012"},{"primitives":[{"attributes":{"POSITION":85,"NORMAL":86,"TEXCOORD_0":87},"indices":84,"material":4}],"name":"tree013"},{"primitives":[{"attributes":{"POSITION":89,"NORMAL":90,"TEXCOORD_0":91},"indices":88,"material":5}],"name":"paths_Retopo"},{"primitives":[{"attributes":{"POSITION":93,"NORMAL":94,"TEXCOORD_0":95},"indices":92,"material":6}],"name":"Line001_Retopo"}],"accessors":[{"bufferView":0,"componentType":5123,"count":4896,"type":"SCALAR","name":"accessorIndices"},{"bufferView":1,"componentType":5126,"count":1656,"max":[1.28844833,0.0500000045,0.6352903],"min":[-1.28844833,-0.0500000045,-0.6346624],"type":"VEC3","name":"accessorPositions"},{"bufferView":1,"byteOffset":19872,"componentType":5126,"count":1656,"type":"VEC3","name":"accessorNormals"},{"bufferView":2,"componentType":5126,"count":1656,"type":"VEC2","name":"accessorUVs"},{"bufferView":0,"byteOffset":9792,"componentType":5123,"count":5016,"type":"SCALAR","name":"accessorIndices"},{"bufferView":1,"byteOffset":39744,"componentType":5126,"count":1700,"max":[1.28844833,0.05,0.6352903],"min":[-1.28844833,-0.05,-0.6346624],"type":"VEC3","name":"accessorPositions"},{"bufferView":1,"byteOffset":60144,"componentType":5126,"count":1700,"type":"VEC3","name":"accessorNormals"},{"bufferView":2,"byteOffset":13248,"componentType":5126,"count":1700,"type":"VEC2","name":"accessorUVs"},{"bufferView":0,"byteOffset":19824,"componentType":5123,"count":852,"type":"SCALAR","name":"accessorIndices"},{"bufferView":1,"byteOffset":80544,"componentType":5126,"count":302,"max":[1.28844833,0.05,0.24703981],"min":[-1.28844833,-0.05,-0.6346624],"type":"VEC3","name":"accessorPositions"},{"bufferView":1,"byteOffset":84168,"componentType":5126,"count":302,"type":"VEC3","name":"accessorNormals"},{"bufferView":2,"byteOffset":26848,"componentType":5126,"count":302,"type":"VEC2","name":"accessorUVs"},{"bufferView":0,"byteOffset":21528,"componentType":5123,"count":1308,"type":"SCALAR","name":"accessorIndices"},{"bufferView":1,"byteOffset":87792,"componentType":5126,"count":454,"max":[1.28844833,0.05,0.6352903],"min":[-1.28844833,-0.05,-0.6346624],"type":"VEC3","name":"accessorPositions"},{"bufferView":1,"byteOffset":93240,"componentType":5126,"count":454,"type":"VEC3","name":"accessorNormals"},{"bufferView":2,"byteOffset":29264,"componentType":5126,"count":454,"type":"VEC2","name":"accessorUVs"},{"bufferView":0,"byteOffset":24144,"componentType":5123,"count":324,"type":"SCALAR","name":"accessorIndices"},{"bufferView":1,"byteOffset":98688,"componentType":5126,"count":120,"max":[0.362456083,0.198900566,0.273432076],"min":[-0.362456053,0.0,-0.273432136],"type":"VEC3","name":"accessorPositions"},{"bufferView":1,"byteOffset":100128,"componentType":5126,"count":120,"type":"VEC3","name":"accessorNormals"},{"bufferView":2,"byteOffset":32896,"componentType":5126,"count":120,"type":"VEC2","name":"accessorUVs"},{"bufferView":0,"byteOffset":24792,"componentType":5123,"count":324,"type":"SCALAR","name":"accessorIndices"},{"bufferView":1,"byteOffset":101568,"componentType":5126,"count":120,"max":[0.362456024,0.19890058,0.273432],"min":[-0.362456053,-1.71796675E-08,-0.2734321],"type":"VEC3","name":"accessorPositions"},{"bufferView":1,"byteOffset":103008,"componentType":5126,"count":120,"type":"VEC3","name":"accessorNormals"},{"bufferView":2,"byteOffset":33856,"componentType":5126,"count":120,"type":"VEC2","name":"accessorUVs"},{"bufferView":0,"byteOffset":25440,"componentType":5123,"count":9,"type":"SCALAR","name":"accessorIndices"},{"bufferView":1,"byteOffset":104448,"componentType":5126,"count":5,"max":[1.4,0.0,1.75],"min":[-1.4,0.0,0.1942821],"type":"VEC3","name":"accessorPositions"},{"bufferView":1,"byteOffset":104508,"componentType":5126,"count":5,"type":"VEC3","name":"accessorNormals"},{"bufferView":2,"byteOffset":34816,"componentType":5126,"count":5,"type":"VEC2","name":"accessorUVs"},{"bufferView":0,"byteOffset":25460,"componentType":5123,"count":9,"type":"SCALAR","name":"accessorIndices"},{"bufferView":1,"byteOffset":104568,"componentType":5126,"count":5,"max":[1.4,0.0,0.5835244],"min":[-1.4,0.0,-1.75],"type":"VEC3","name":"accessorPositions"},{"bufferView":1,"byteOffset":104628,"componentType":5126,"count":5,"type":"VEC3","name":"accessorNormals"},{"bufferView":2,"byteOffset":34856,"componentType":5126,"count":5,"type":"VEC2","name":"accessorUVs"},{"bufferView":0,"byteOffset":25480,"componentType":5123,"count":3018,"type":"SCALAR","name":"accessorIndices"},{"bufferView":1,"byteOffset":104688,"componentType":5126,"count":630,"max":[0.0547454543,0.208614111,0.05381595],"min":[-0.04884488,0.0,-0.05352279],"type":"VEC3","name":"accessorPositions"},{"bufferView":1,"byteOffset":112248,"componentType":5126,"count":630,"type":"VEC3","name":"accessorNormals"},{"bufferView":2,"byteOffset":34896,"componentType":5126,"count":630,"type":"VEC2","name":"accessorUVs"},{"bufferView":0,"byteOffset":31516,"componentType":5123,"count":2940,"type":"SCALAR","name":"accessorIndices"},{"bufferView":1,"byteOffset":119808,"componentType":5126,"count":617,"max":[0.0498301461,0.204927608,0.0551343523],"min":[-0.0562304333,0.0,-0.0510407537],"type":"VEC3","name":"accessorPositions"},{"bufferView":1,"byteOffset":127212,"componentType":5126,"count":617,"type":"VEC3","name":"accessorNormals"},{"bufferView":2,"byteOffset":39936,"componentType":5126,"count":617,"type":"VEC2","name":"accessorUVs"},{"bufferView":0,"byteOffset":37396,"componentType":5123,"count":3030,"type":"SCALAR","name":"accessorIndices"},{"bufferView":1,"byteOffset":134616,"componentType":5126,"count":627,"max":[0.056412328,0.212552845,0.0499251075],"min":[-0.04907017,0.0,-0.05497769],"type":"VEC3","name":"accessorPositions"},{"bufferView":1,"byteOffset":142140,"componentType":5126,"count":627,"type":"VEC3","name":"accessorNormals"},{"bufferView":2,"byteOffset":44872,"componentType":5126,"count":627,"type":"VEC2","name":"accessorUVs"},{"bufferView":0,"byteOffset":43456,"componentType":5123,"count":2766,"type":"SCALAR","name":"accessorIndices"},{"bufferView":1,"byteOffset":149664,"componentType":5126,"count":581,"max":[0.0578365922,0.207972676,0.0606601648],"min":[-0.0603111237,0.0,-0.055401016],"type":"VEC3","name":"accessorPositions"},{"bufferView":1,"byteOffset":156636,"componentType":5126,"count":581,"type":"VEC3","name":"accessorNormals"},{"bufferView":2,"byteOffset":49888,"componentType":5126,"count":581,"type":"VEC2","name":"accessorUVs"},{"bufferView":0,"byteOffset":48988,"componentType":5123,"count":2922,"type":"SCALAR","name":"accessorIndices"},{"bufferView":1,"byteOffset":163608,"componentType":5126,"count":613,"max":[0.0507137738,0.207780525,0.05594567],"min":[-0.0552893952,0.0,-0.054901354],"type":"VEC3","name":"accessorPositions"},{"bufferView":1,"byteOffset":170964,"componentType":5126,"count":613,"type":"VEC3","name":"accessorNormals"},{"bufferView":2,"byteOffset":54536,"componentType":5126,"count":613,"type":"VEC2","name":"accessorUVs"},{"bufferView":0,"byteOffset":54832,"componentType":5123,"count":3018,"type":"SCALAR","name":"accessorIndices"},{"bufferView":1,"byteOffset":178320,"componentType":5126,"count":630,"max":[0.0547454543,0.208614111,0.05381595],"min":[-0.04884488,0.0,-0.05352279],"type":"VEC3","name":"accessorPositions"},{"bufferView":1,"byteOffset":185880,"componentType":5126,"count":630,"type":"VEC3","name":"accessorNormals"},{"bufferView":2,"byteOffset":59440,"componentType":5126,"count":630,"type":"VEC2","name":"accessorUVs"},{"bufferView":0,"byteOffset":60868,"componentType":5123,"count":2940,"type":"SCALAR","name":"accessorIndices"},{"bufferView":1,"byteOffset":193440,"componentType":5126,"count":617,"max":[0.0498301461,0.204927608,0.0551343523],"min":[-0.0562304333,1.21116637E-08,-0.0510407537],"type":"VEC3","name":"accessorPositions"},{"bufferView":1,"byteOffset":200844,"componentType":5126,"count":617,"type":"VEC3","name":"accessorNormals"},{"bufferView":2,"byteOffset":64480,"componentType":5126,"count":617,"type":"VEC2","name":"accessorUVs"},{"bufferView":0,"byteOffset":66748,"componentType":5123,"count":3030,"type":"SCALAR","name":"accessorIndices"},{"bufferView":1,"byteOffset":208248,"componentType":5126,"count":627,"max":[0.056412328,0.21255286,0.0499251075],"min":[-0.04907017,1.21116637E-08,-0.05497769],"type":"VEC3","name":"accessorPositions"},{"bufferView":1,"byteOffset":215772,"componentType":5126,"count":627,"type":"VEC3","name":"accessorNormals"},{"bufferView":2,"byteOffset":69416,"componentType":5126,"count":627,"type":"VEC2","name":"accessorUVs"},{"bufferView":0,"byteOffset":72808,"componentType":5123,"count":3018,"type":"SCALAR","name":"accessorIndices"},{"bufferView":1,"byteOffset":223296,"componentType":5126,"count":630,"max":[0.0547454543,0.208614111,0.05381595],"min":[-0.04884488,0.0,-0.05352279],"type":"VEC3","name":"accessorPositions"},{"bufferView":1,"byteOffset":230856,"componentType":5126,"count":630,"type":"VEC3","name":"accessorNormals"},{"bufferView":2,"byteOffset":74432,"componentType":5126,"count":630,"type":"VEC2","name":"accessorUVs"},{"bufferView":0,"byteOffset":78844,"componentType":5123,"count":3018,"type":"SCALAR","name":"accessorIndices"},{"bufferView":1,"byteOffset":238416,"componentType":5126,"count":630,"max":[0.0547454543,0.208614111,0.05381595],"min":[-0.04884488,1.21116637E-08,-0.05352279],"type":"VEC3","name":"accessorPositions"},{"bufferView":1,"byteOffset":245976,"componentType":5126,"count":630,"type":"VEC3","name":"accessorNormals"},{"bufferView":2,"byteOffset":79472,"componentType":5126,"count":630,"type":"VEC2","name":"accessorUVs"},{"bufferView":0,"byteOffset":84880,"componentType":5123,"count":2940,"type":"SCALAR","name":"accessorIndices"},{"bufferView":1,"byteOffset":253536,"componentType":5126,"count":617,"max":[0.0498301461,0.204927608,0.0551343523],"min":[-0.0562304333,0.0,-0.0510407537],"type":"VEC3","name":"accessorPositions"},{"bufferView":1,"byteOffset":260940,"componentType":5126,"count":617,"type":"VEC3","name":"accessorNormals"},{"bufferView":2,"byteOffset":84512,"componentType":5126,"count":617,"type":"VEC2","name":"accessorUVs"},{"bufferView":0,"byteOffset":90760,"componentType":5123,"count":3030,"type":"SCALAR","name":"accessorIndices"},{"bufferView":1,"byteOffset":268344,"componentType":5126,"count":627,"max":[0.056412328,0.21255286,0.0499251075],"min":[-0.04907017,1.21116637E-08,-0.05497769],"type":"VEC3","name":"accessorPositions"},{"bufferView":1,"byteOffset":275868,"componentType":5126,"count":627,"type":"VEC3","name":"accessorNormals"},{"bufferView":2,"byteOffset":89448,"componentType":5126,"count":627,"type":"VEC2","name":"accessorUVs"},{"bufferView":0,"byteOffset":96820,"componentType":5123,"count":2766,"type":"SCALAR","name":"accessorIndices"},{"bufferView":1,"byteOffset":283392,"componentType":5126,"count":581,"max":[0.0578365922,0.207972676,0.0606601648],"min":[-0.0603111237,0.0,-0.055401016],"type":"VEC3","name":"accessorPositions"},{"bufferView":1,"byteOffset":290364,"componentType":5126,"count":581,"type":"VEC3","name":"accessorNormals"},{"bufferView":2,"byteOffset":94464,"componentType":5126,"count":581,"type":"VEC2","name":"accessorUVs"},{"bufferView":0,"byteOffset":102352,"componentType":5123,"count":2922,"type":"SCALAR","name":"accessorIndices"},{"bufferView":1,"byteOffset":297336,"componentType":5126,"count":613,"max":[0.0507137738,0.207780525,0.05594567],"min":[-0.0552893952,0.0,-0.054901354],"type":"VEC3","name":"accessorPositions"},{"bufferView":1,"byteOffset":304692,"componentType":5126,"count":613,"type":"VEC3","name":"accessorNormals"},{"bufferView":2,"byteOffset":99112,"componentType":5126,"count":613,"type":"VEC2","name":"accessorUVs"},{"bufferView":0,"byteOffset":108196,"componentType":5123,"count":53286,"type":"SCALAR","name":"accessorIndices"},{"bufferView":1,"byteOffset":312048,"componentType":5126,"count":14221,"max":[1.31500542,0.0020536,1.00016379],"min":[-1.29513907,-0.000825501163,-1.223826],"type":"VEC3","name":"accessorPositions"},{"bufferView":1,"byteOffset":482700,"componentType":5126,"count":14221,"type":"VEC3","name":"accessorNormals"},{"bufferView":2,"byteOffset":104016,"componentType":5126,"count":14221,"type":"VEC2","name":"accessorUVs"},{"bufferView":0,"byteOffset":214768,"componentType":5123,"count":28560,"type":"SCALAR","name":"accessorIndices"},{"bufferView":1,"byteOffset":653352,"componentType":5126,"count":5172,"max":[0.139327183,0.0009999999,0.150690213],"min":[-0.122143731,-8.795585E-20,-0.15461266],"type":"VEC3","name":"accessorPositions"},{"bufferView":1,"byteOffset":715416,"componentType":5126,"count":5172,"type":"VEC3","name":"accessorNormals"},{"bufferView":2,"byteOffset":217784,"componentType":5126,"count":5172,"type":"VEC2","name":"accessorUVs"}],"bufferViews":[{"buffer":0,"byteLength":271888,"name":"bufferViewScalar"},{"buffer":0,"byteOffset":271888,"byteLength":777480,"byteStride":12,"name":"bufferViewFloatVec3"},{"buffer":0,"byteOffset":1049368,"byteLength":259160,"byteStride":8,"name":"bufferViewFloatVec2"}],"buffers":[{"uri":"25k_poly_test.bin","byteLength":1308528}],"materials":[{"pbrMetallicRoughness":{"baseColorFactor":[1.0,1.0,1.0,0.199999988],"baseColorTexture":{"index":0},"metallicFactor":0.0,"roughnessFactor":0.0},"alphaMode":"BLEND","doubleSided":true,"name":"building","extras":{"babylonSeparateCullingPass":false}},{"pbrMetallicRoughness":{"baseColorFactor":[1.0,1.0,1.0,0.199999988],"baseColorTexture":{"index":1},"metallicFactor":0.0,"roughnessFactor":0.0},"alphaMode":"BLEND","doubleSided":true,"name":"rooms","extras":{"babylonSeparateCullingPass":false}},{"pbrMetallicRoughness":{"baseColorFactor":[0.230215833,0.230215833,0.230215833,1.0],"baseColorTexture":{"index":2},"metallicFactor":0.0,"metallicRoughnessTexture":{"index":2}},"doubleSided":true,"name":"base","extras":{"babylonSeparateCullingPass":false}},{"pbrMetallicRoughness":{"baseColorFactor":[0.50359714,0.463789225,0.379197419,1.0],"baseColorTexture":{"index":3},"metallicFactor":0.0,"roughnessFactor":0.9},"doubleSided":true,"name":"park","extras":{"babylonSeparateCullingPass":false}},{"pbrMetallicRoughness":{"baseColorFactor":[0.129411772,0.105882354,0.0,1.0],"metallicFactor":0.1,"roughnessFactor":0.6},"doubleSided":true,"name":"trees","extras":{"babylonSeparateCullingPass":false}},{"pbrMetallicRoughness":{"baseColorTexture":{"index":5,"extensions":{"KHR_texture_transform":{"offset":[-2.0,2.0],"scale":[5.0,5.0],"texCoord":0}}},"metallicFactor":0.0,"roughnessFactor":0.65},"normalTexture":{"index":4,"scale":0.1,"extensions":{"KHR_texture_transform":{"offset":[-2.0,2.0],"scale":[5.0,5.0],"texCoord":0}}},"doubleSided":true,"name":"path","extras":{"babylonSeparateCullingPass":false}},{"pbrMetallicRoughness":{"baseColorTexture":{"index":7},"metallicFactor":0.0,"roughnessFactor":0.23},"normalTexture":{"index":6,"scale":0.3},"doubleSided":true,"name":"Material #11","extras":{"babylonSeparateCullingPass":false}}],"textures":[{"sampler":0,"source":0,"name":"blue_test_alpha_Map__12.png"},{"sampler":0,"source":1,"name":"red_test_alpha_Map__23.png"},{"sampler":0,"source":2,"name":"concrate.jpg"},{"sampler":0,"source":3,"name":"forest-green-grunge-texture-634823051.jpg"},{"sampler":0,"source":4,"name":"gravel_bump.png"},{"sampler":0,"source":5,"name":"gravel.jpg"},{"sampler":0,"source":6,"name":"lake_b.png"},{"sampler":0,"source":7,"name":"lake.jpg"}],"images":[{"uri":"blue_test_alpha_Map__12.png"},{"uri":"red_test_alpha_Map__23.png"},{"uri":"concrate.jpg"},{"uri":"forest-green-grunge-texture-634823051.jpg"},{"uri":"gravel_bump.png"},{"uri":"gravel.jpg"},{"uri":"lake_b.png"},{"uri":"lake.jpg"}],"samplers":[{"magFilter":9729,"minFilter":9987}]}