{"asset":{"version":"2.0","generator":"babylon.js glTF exporter for 3dsmax 2022 v20210811.2"},"scene":0,"scenes":[{"nodes":[0,1,2,17,18,19,20,21,22,23,24]}],"nodes":[{"mesh":0,"translation":[0.0,0.0,-0.319495171],"name":"building_base"},{"mesh":1,"translation":[0.0,0.0,-0.319495171],"name":"park"},{"children":[3,4,5,6,7,8,9,10,11,12,13,14,15,16],"translation":[-0.237399027,0.180328339,-1.07565272],"name":"trees"},{"mesh":2,"translation":[0.718269348,-0.180328339,-0.2592022],"scale":[1.22592854,1.22592854,1.22592854],"name":"tree00"},{"mesh":3,"translation":[0.6841273,-0.180328339,-0.551938],"scale":[1.52245,1.52245,1.52245],"name":"tree01"},{"mesh":4,"translation":[0.418178767,-0.180328339,-0.5080231],"rotation":[0.0,0.461748719,0.0,0.887010753],"scale":[1.52244961,1.3918364,1.52244961],"name":"tree02"},{"mesh":5,"translation":[0.8135077,-0.180328339,-0.759715259],"rotation":[0.0,0.5735765,0.0,0.819152],"scale":[1.52245009,1.34048939,1.52245009],"name":"tree03"},{"mesh":6,"translation":[0.9063408,-0.180328339,-0.00300272368],"scale":[1.52245,1.30888236,1.52245],"name":"tree04"},{"mesh":7,"translation":[0.8153918,-0.180328339,0.2262515],"rotation":[0.0,0.7071068,0.0,0.7071067],"scale":[1.52245,1.52245,1.52245],"name":"tree005"},{"mesh":8,"translation":[1.03463662,-0.180328339,0.456706434],"rotation":[0.0,-0.6755903,0.0,0.737277269],"scale":[1.52245009,1.39150965,1.52245009],"name":"tree006"},{"mesh":9,"translation":[0.101842061,-0.180328339,-0.638903439],"rotation":[0.0,-0.6755901,0.0,0.737277448],"scale":[1.52245009,1.52245,1.52245009],"name":"tree007"},{"mesh":10,"translation":[-0.430204928,-0.180328339,-0.634704053],"scale":[1.52245,1.52245,1.52245],"name":"tree008"},{"mesh":11,"translation":[-1.03183234,-0.180328339,0.1761375],"rotation":[0.0,0.6755902,0.0,0.7372773],"scale":[1.52245009,1.14208293,1.52245009],"name":"tree009"},{"mesh":12,"translation":[-0.5283792,-0.180328339,0.366221249],"rotation":[0.0,-0.9063078,0.0,-0.42261824],"scale":[1.75812519,1.75812519,1.75812519],"name":"tree010"},{"mesh":13,"translation":[-0.5284553,-0.180328339,-0.231642827],"rotation":[0.0,-0.999048233,0.0,0.04361966],"scale":[1.37600827,1.37600827,1.37600827],"name":"tree011"},{"mesh":14,"translation":[-0.996295,-0.180328339,-0.354881048],"rotation":[0.0,-0.7071068,0.0,0.7071067],"scale":[1.52245,1.52245,1.52245],"name":"tree012"},{"mesh":15,"translation":[-0.6138037,-0.180328339,0.7746788],"rotation":[0.0,-0.866025448,0.0,-0.49999994],"scale":[1.52245009,1.52245,1.52245009],"name":"tree013"},{"mesh":16,"translation":[-0.102089427,0.0,-0.7384933],"name":"paths_Retopo"},{"mesh":17,"translation":[-0.5981985,0.0009999999,-0.5609341],"name":"Lake_Retopo"},{"mesh":18,"translation":[3.19747915E-06,0.05,0.6931765],"scale":[1.0,0.999,1.0],"name":"floor_0"},{"mesh":19,"translation":[3.19747915E-06,0.150000051,0.6931765],"scale":[1.0,0.999,1.0],"name":"floor_1"},{"mesh":20,"translation":[3.19747915E-06,0.35,0.6931766],"scale":[1.0,0.999,1.0],"name":"floor_3"},{"mesh":21,"translation":[-0.69691354,4.99848356E-05,0.475030541],"scale":[0.98999995,0.98999995,0.98999995],"name":"room2"},{"mesh":22,"translation":[0.6969188,4.99969465E-05,0.475030929],"scale":[0.98999995,0.98999995,0.98999995],"name":"room1"},{"mesh":23,"translation":[3.100586E-06,0.2500001,0.6931765],"scale":[1.0,0.999,1.0],"name":"floor_2"}],"meshes":[{"primitives":[{"attributes":{"POSITION":1,"NORMAL":2,"TEXCOORD_0":3},"indices":0,"material":0}],"name":"building_base"},{"primitives":[{"attributes":{"POSITION":5,"NORMAL":6,"TEXCOORD_0":7},"indices":4,"material":1}],"name":"park"},{"primitives":[{"attributes":{"POSITION":9,"NORMAL":10,"TEXCOORD_0":11},"indices":8,"material":2}],"name":"tree00"},{"primitives":[{"attributes":{"POSITION":13,"NORMAL":14,"TEXCOORD_0":15},"indices":12,"material":2}],"name":"tree01"},{"primitives":[{"attributes":{"POSITION":17,"NORMAL":18,"TEXCOORD_0":19},"indices":16,"material":2}],"name":"tree02"},{"primitives":[{"attributes":{"POSITION":21,"NORMAL":22,"TEXCOORD_0":23},"indices":20,"material":2}],"name":"tree03"},{"primitives":[{"attributes":{"POSITION":25,"NORMAL":26,"TEXCOORD_0":27},"indices":24,"material":2}],"name":"tree04"},{"primitives":[{"attributes":{"POSITION":29,"NORMAL":30,"TEXCOORD_0":31},"indices":28,"material":2}],"name":"tree005"},{"primitives":[{"attributes":{"POSITION":33,"NORMAL":34,"TEXCOORD_0":35},"indices":32,"material":2}],"name":"tree006"},{"primitives":[{"attributes":{"POSITION":37,"NORMAL":38,"TEXCOORD_0":39},"indices":36,"material":2}],"name":"tree007"},{"primitives":[{"attributes":{"POSITION":41,"NORMAL":42,"TEXCOORD_0":43},"indices":40,"material":2}],"name":"tree008"},{"primitives":[{"attributes":{"POSITION":45,"NORMAL":46,"TEXCOORD_0":47},"indices":44,"material":2}],"name":"tree009"},{"primitives":[{"attributes":{"POSITION":49,"NORMAL":50,"TEXCOORD_0":51},"indices":48,"material":2}],"name":"tree010"},{"primitives":[{"attributes":{"POSITION":53,"NORMAL":54,"TEXCOORD_0":55},"indices":52,"material":2}],"name":"tree011"},{"primitives":[{"attributes":{"POSITION":57,"NORMAL":58,"TEXCOORD_0":59},"indices":56,"material":2}],"name":"tree012"},{"primitives":[{"attributes":{"POSITION":61,"NORMAL":62,"TEXCOORD_0":63},"indices":60,"material":2}],"name":"tree013"},{"primitives":[{"attributes":{"POSITION":65,"NORMAL":66},"indices":64,"material":2}],"name":"paths_Retopo"},{"primitives":[{"attributes":{"POSITION":68,"NORMAL":69},"indices":67,"material":3}],"name":"Lake_Retopo"},{"primitives":[{"attributes":{"POSITION":71,"NORMAL":72,"TEXCOORD_0":73},"indices":70,"material":4}],"name":"floor_0"},{"primitives":[{"attributes":{"POSITION":75,"NORMAL":76,"TEXCOORD_0":77},"indices":74,"material":4}],"name":"floor_1"},{"primitives":[{"attributes":{"POSITION":79,"NORMAL":80,"TEXCOORD_0":81},"indices":78,"material":4}],"name":"floor_3"},{"primitives":[{"attributes":{"POSITION":83,"NORMAL":84,"TEXCOORD_0":85},"indices":82,"material":5}],"name":"room2"},{"primitives":[{"attributes":{"POSITION":87,"NORMAL":88,"TEXCOORD_0":89},"indices":86,"material":5}],"name":"room1"},{"primitives":[{"attributes":{"POSITION":91,"NORMAL":92,"TEXCOORD_0":93},"indices":90,"material":4}],"name":"floor_2"}],"accessors":[{"bufferView":0,"componentType":5123,"count":48,"type":"SCALAR","name":"accessorIndices"},{"bufferView":1,"componentType":5126,"count":34,"max":[1.4,0.0,1.75],"min":[-1.4,-0.02,0.1942821],"type":"VEC3","name":"accessorPositions"},{"bufferView":1,"byteOffset":408,"componentType":5126,"count":34,"type":"VEC3","name":"accessorNormals"},{"bufferView":2,"componentType":5126,"count":34,"type":"VEC2","name":"accessorUVs"},{"bufferView":0,"byteOffset":96,"componentType":5123,"count":48,"type":"SCALAR","name":"accessorIndices"},{"bufferView":1,"byteOffset":816,"componentType":5126,"count":34,"max":[1.4,0.0,0.5835244],"min":[-1.4,-0.02,-1.75],"type":"VEC3","name":"accessorPositions"},{"bufferView":1,"byteOffset":1224,"componentType":5126,"count":34,"type":"VEC3","name":"accessorNormals"},{"bufferView":2,"byteOffset":272,"componentType":5126,"count":34,"type":"VEC2","name":"accessorUVs"},{"bufferView":0,"byteOffset":192,"componentType":5123,"count":480,"type":"SCALAR","name":"accessorIndices"},{"bufferView":1,"byteOffset":1632,"componentType":5126,"count":390,"max":[0.0549246557,0.208825961,0.05413573],"min":[-0.04902742,0.0,-0.0536878],"type":"VEC3","name":"accessorPositions"},{"bufferView":1,"byteOffset":6312,"componentType":5126,"count":390,"type":"VEC3","name":"accessorNormals"},{"bufferView":2,"byteOffset":544,"componentType":5126,"count":390,"type":"VEC2","name":"accessorUVs"},{"bufferView":0,"byteOffset":1152,"componentType":5123,"count":480,"type":"SCALAR","name":"accessorIndices"},{"bufferView":1,"byteOffset":10992,"componentType":5126,"count":390,"max":[0.0499894246,0.205137089,0.0554035567],"min":[-0.0562730432,0.0,-0.0512651466],"type":"VEC3","name":"accessorPositions"},{"bufferView":1,"byteOffset":15672,"componentType":5126,"count":390,"type":"VEC3","name":"accessorNormals"},{"bufferView":2,"byteOffset":3664,"componentType":5126,"count":390,"type":"VEC2","name":"accessorUVs"},{"bufferView":0,"byteOffset":2112,"componentType":5123,"count":480,"type":"SCALAR","name":"accessorIndices"},{"bufferView":1,"byteOffset":20352,"componentType":5126,"count":390,"max":[0.05659274,0.21277611,0.0501053035],"min":[-0.0492044352,0.0,-0.0551696867],"type":"VEC3","name":"accessorPositions"},{"bufferView":1,"byteOffset":25032,"componentType":5126,"count":390,"type":"VEC3","name":"accessorNormals"},{"bufferView":2,"byteOffset":6784,"componentType":5126,"count":390,"type":"VEC2","name":"accessorUVs"},{"bufferView":0,"byteOffset":3072,"componentType":5123,"count":480,"type":"SCALAR","name":"accessorIndices"},{"bufferView":1,"byteOffset":29712,"componentType":5126,"count":390,"max":[0.0583138578,0.208195284,0.0609624051],"min":[-0.0607661381,0.0,-0.0557714067],"type":"VEC3","name":"accessorPositions"},{"bufferView":1,"byteOffset":34392,"componentType":5126,"count":390,"type":"VEC3","name":"accessorNormals"},{"bufferView":2,"byteOffset":9904,"componentType":5126,"count":390,"type":"VEC2","name":"accessorUVs"},{"bufferView":0,"byteOffset":4032,"componentType":5123,"count":480,"type":"SCALAR","name":"accessorIndices"},{"bufferView":1,"byteOffset":39072,"componentType":5126,"count":390,"max":[0.0508380421,0.207986042,0.0563334078],"min":[-0.05552556,0.0,-0.05525125],"type":"VEC3","name":"accessorPositions"},{"bufferView":1,"byteOffset":43752,"componentType":5126,"count":390,"type":"VEC3","name":"accessorNormals"},{"bufferView":2,"byteOffset":13024,"componentType":5126,"count":390,"type":"VEC2","name":"accessorUVs"},{"bufferView":0,"byteOffset":4992,"componentType":5123,"count":480,"type":"SCALAR","name":"accessorIndices"},{"bufferView":1,"byteOffset":48432,"componentType":5126,"count":390,"max":[0.0549246557,0.208825961,0.05413573],"min":[-0.04902742,0.0,-0.0536878],"type":"VEC3","name":"accessorPositions"},{"bufferView":1,"byteOffset":53112,"componentType":5126,"count":390,"type":"VEC3","name":"accessorNormals"},{"bufferView":2,"byteOffset":16144,"componentType":5126,"count":390,"type":"VEC2","name":"accessorUVs"},{"bufferView":0,"byteOffset":5952,"componentType":5123,"count":480,"type":"SCALAR","name":"accessorIndices"},{"bufferView":1,"byteOffset":57792,"componentType":5126,"count":390,"max":[0.0499894246,0.205137119,0.0554035567],"min":[-0.0562730432,1.21116637E-08,-0.0512651466],"type":"VEC3","name":"accessorPositions"},{"bufferView":1,"byteOffset":62472,"componentType":5126,"count":390,"type":"VEC3","name":"accessorNormals"},{"bufferView":2,"byteOffset":19264,"componentType":5126,"count":390,"type":"VEC2","name":"accessorUVs"},{"bufferView":0,"byteOffset":6912,"componentType":5123,"count":480,"type":"SCALAR","name":"accessorIndices"},{"bufferView":1,"byteOffset":67152,"componentType":5126,"count":390,"max":[0.05659274,0.212776139,0.0501053035],"min":[-0.0492044352,1.21116637E-08,-0.0551696867],"type":"VEC3","name":"accessorPositions"},{"bufferView":1,"byteOffset":71832,"componentType":5126,"count":390,"type":"VEC3","name":"accessorNormals"},{"bufferView":2,"byteOffset":22384,"componentType":5126,"count":390,"type":"VEC2","name":"accessorUVs"},{"bufferView":0,"byteOffset":7872,"componentType":5123,"count":480,"type":"SCALAR","name":"accessorIndices"},{"bufferView":1,"byteOffset":76512,"componentType":5126,"count":390,"max":[0.0549246557,0.208825961,0.05413573],"min":[-0.04902742,0.0,-0.0536878],"type":"VEC3","name":"accessorPositions"},{"bufferView":1,"byteOffset":81192,"componentType":5126,"count":390,"type":"VEC3","name":"accessorNormals"},{"bufferView":2,"byteOffset":25504,"componentType":5126,"count":390,"type":"VEC2","name":"accessorUVs"},{"bufferView":0,"byteOffset":8832,"componentType":5123,"count":480,"type":"SCALAR","name":"accessorIndices"},{"bufferView":1,"byteOffset":85872,"componentType":5126,"count":390,"max":[0.0549246557,0.208825961,0.05413573],"min":[-0.04902742,1.21116637E-08,-0.0536878],"type":"VEC3","name":"accessorPositions"},{"bufferView":1,"byteOffset":90552,"componentType":5126,"count":390,"type":"VEC3","name":"accessorNormals"},{"bufferView":2,"byteOffset":28624,"componentType":5126,"count":390,"type":"VEC2","name":"accessorUVs"},{"bufferView":0,"byteOffset":9792,"componentType":5123,"count":480,"type":"SCALAR","name":"accessorIndices"},{"bufferView":1,"byteOffset":95232,"componentType":5126,"count":390,"max":[0.0499894246,0.205137089,0.0554035567],"min":[-0.0562730432,0.0,-0.0512651466],"type":"VEC3","name":"accessorPositions"},{"bufferView":1,"byteOffset":99912,"componentType":5126,"count":390,"type":"VEC3","name":"accessorNormals"},{"bufferView":2,"byteOffset":31744,"componentType":5126,"count":390,"type":"VEC2","name":"accessorUVs"},{"bufferView":0,"byteOffset":10752,"componentType":5123,"count":480,"type":"SCALAR","name":"accessorIndices"},{"bufferView":1,"byteOffset":104592,"componentType":5126,"count":390,"max":[0.05659274,0.212776139,0.0501053035],"min":[-0.0492044352,1.21116637E-08,-0.0551696867],"type":"VEC3","name":"accessorPositions"},{"bufferView":1,"byteOffset":109272,"componentType":5126,"count":390,"type":"VEC3","name":"accessorNormals"},{"bufferView":2,"byteOffset":34864,"componentType":5126,"count":390,"type":"VEC2","name":"accessorUVs"},{"bufferView":0,"byteOffset":11712,"componentType":5123,"count":480,"type":"SCALAR","name":"accessorIndices"},{"bufferView":1,"byteOffset":113952,"componentType":5126,"count":390,"max":[0.0583138578,0.208195284,0.0609624051],"min":[-0.0607661381,0.0,-0.0557714067],"type":"VEC3","name":"accessorPositions"},{"bufferView":1,"byteOffset":118632,"componentType":5126,"count":390,"type":"VEC3","name":"accessorNormals"},{"bufferView":2,"byteOffset":37984,"componentType":5126,"count":390,"type":"VEC2","name":"accessorUVs"},{"bufferView":0,"byteOffset":12672,"componentType":5123,"count":480,"type":"SCALAR","name":"accessorIndices"},{"bufferView":1,"byteOffset":123312,"componentType":5126,"count":390,"max":[0.0508380421,0.207986042,0.0563334078],"min":[-0.05552556,0.0,-0.05525125],"type":"VEC3","name":"accessorPositions"},{"bufferView":1,"byteOffset":127992,"componentType":5126,"count":390,"type":"VEC3","name":"accessorNormals"},{"bufferView":2,"byteOffset":41104,"componentType":5126,"count":390,"type":"VEC2","name":"accessorUVs"},{"bufferView":0,"byteOffset":13632,"componentType":5123,"count":34968,"type":"SCALAR","name":"accessorIndices"},{"bufferView":1,"byteOffset":132672,"componentType":5126,"count":8063,"max":[1.50208938,0.002000056,1.00125134],"min":[-1.29791045,-2.037338E-08,-1.33100271],"type":"VEC3","name":"accessorPositions"},{"bufferView":1,"byteOffset":229428,"componentType":5126,"count":8063,"type":"VEC3","name":"accessorNormals"},{"bufferView":0,"byteOffset":83568,"componentType":5123,"count":6084,"type":"SCALAR","name":"accessorIndices"},{"bufferView":1,"byteOffset":326184,"componentType":5126,"count":1198,"max":[0.139304489,0.001,0.150674582],"min":[-0.12210983,-4.40547444E-20,-0.154470056],"type":"VEC3","name":"accessorPositions"},{"bufferView":1,"byteOffset":340560,"componentType":5126,"count":1198,"type":"VEC3","name":"accessorNormals"},{"bufferView":0,"byteOffset":95736,"componentType":5123,"count":1440,"type":"SCALAR","name":"accessorIndices"},{"bufferView":1,"byteOffset":354936,"componentType":5126,"count":488,"max":[1.28909528,0.0500000045,0.6352903],"min":[-1.28909528,-0.0500000045,-0.635290265],"type":"VEC3","name":"accessorPositions"},{"bufferView":1,"byteOffset":360792,"componentType":5126,"count":488,"type":"VEC3","name":"accessorNormals"},{"bufferView":2,"byteOffset":44224,"componentType":5126,"count":488,"type":"VEC2","name":"accessorUVs"},{"bufferView":0,"byteOffset":98616,"componentType":5123,"count":3000,"type":"SCALAR","name":"accessorIndices"},{"bufferView":1,"byteOffset":366648,"componentType":5126,"count":606,"max":[1.28844833,0.05,0.6352903],"min":[-1.28844833,-0.05,-0.6346624],"type":"VEC3","name":"accessorPositions"},{"bufferView":1,"byteOffset":373920,"componentType":5126,"count":606,"type":"VEC3","name":"accessorNormals"},{"bufferView":2,"byteOffset":48128,"componentType":5126,"count":606,"type":"VEC2","name":"accessorUVs"},{"bufferView":0,"byteOffset":104616,"componentType":5123,"count":684,"type":"SCALAR","name":"accessorIndices"},{"bufferView":1,"byteOffset":381192,"componentType":5126,"count":179,"max":[1.28844833,0.05,0.24703981],"min":[-1.28844833,-0.05,-0.6346624],"type":"VEC3","name":"accessorPositions"},{"bufferView":1,"byteOffset":383340,"componentType":5126,"count":179,"type":"VEC3","name":"accessorNormals"},{"bufferView":2,"byteOffset":52976,"componentType":5126,"count":179,"type":"VEC2","name":"accessorUVs"},{"bufferView":0,"byteOffset":105984,"componentType":5123,"count":324,"type":"SCALAR","name":"accessorIndices"},{"bufferView":1,"byteOffset":385488,"componentType":5126,"count":116,"max":[0.362456083,0.198900566,0.273432076],"min":[-0.362456053,0.0,-0.273432136],"type":"VEC3","name":"accessorPositions"},{"bufferView":1,"byteOffset":386880,"componentType":5126,"count":116,"type":"VEC3","name":"accessorNormals"},{"bufferView":2,"byteOffset":54408,"componentType":5126,"count":116,"type":"VEC2","name":"accessorUVs"},{"bufferView":0,"byteOffset":106632,"componentType":5123,"count":324,"type":"SCALAR","name":"accessorIndices"},{"bufferView":1,"byteOffset":388272,"componentType":5126,"count":188,"max":[0.362456024,0.19890058,0.273432],"min":[-0.362456053,-1.71796675E-08,-0.2734321],"type":"VEC3","name":"accessorPositions"},{"bufferView":1,"byteOffset":390528,"componentType":5126,"count":188,"type":"VEC3","name":"accessorNormals"},{"bufferView":2,"byteOffset":55336,"componentType":5126,"count":188,"type":"VEC2","name":"accessorUVs"},{"bufferView":0,"byteOffset":107280,"componentType":5123,"count":1608,"type":"SCALAR","name":"accessorIndices"},{"bufferView":1,"byteOffset":392784,"componentType":5126,"count":354,"max":[1.28844833,0.05,0.6352903],"min":[-1.28844833,-0.05,-0.6346624],"type":"VEC3","name":"accessorPositions"},{"bufferView":1,"byteOffset":397032,"componentType":5126,"count":354,"type":"VEC3","name":"accessorNormals"},{"bufferView":2,"byteOffset":56840,"componentType":5126,"count":354,"type":"VEC2","name":"accessorUVs"}],"bufferViews":[{"buffer":0,"byteLength":110496,"name":"bufferViewScalar"},{"buffer":0,"byteOffset":110496,"byteLength":401280,"byteStride":12,"name":"bufferViewFloatVec3"},{"buffer":0,"byteOffset":511776,"byteLength":59672,"byteStride":8,"name":"bufferViewFloatVec2"}],"buffers":[{"uri":"campus.bin","byteLength":571448}],"materials":[{"pbrMetallicRoughness":{"baseColorFactor":[0.839,0.839,0.839,1.0],"metallicFactor":0.0,"roughnessFactor":0.85},"doubleSided":true,"name":"base_concrate","extras":{"babylonSeparateCullingPass":false}},{"pbrMetallicRoughness":{"metallicFactor":0.0,"roughnessFactor":0.85},"doubleSided":true,"name":"park","extras":{"babylonSeparateCullingPass":false}},{"pbrMetallicRoughness":{"metallicFactor":0.0,"roughnessFactor":0.6},"doubleSided":true,"name":"tree_path","extras":{"babylonSeparateCullingPass":false}},{"pbrMetallicRoughness":{"baseColorFactor":[0.75686276,0.8784314,0.956862748,1.0],"metallicFactor":0.0,"roughnessFactor":0.6},"doubleSided":true,"name":"lake","extras":{"babylonSeparateCullingPass":false}},{"pbrMetallicRoughness":{"baseColorFactor":[1.0,1.0,1.0,0.199999988],"baseColorTexture":{"index":0},"metallicFactor":0.0,"roughnessFactor":0.6},"alphaMode":"BLEND","doubleSided":true,"name":"building","extras":{"babylonSeparateCullingPass":false}},{"pbrMetallicRoughness":{"baseColorFactor":[1.0,1.0,1.0,0.5],"baseColorTexture":{"index":1},"metallicFactor":0.0,"roughnessFactor":0.6},"alphaMode":"BLEND","doubleSided":true,"name":"rooms","extras":{"babylonSeparateCullingPass":false}}],"textures":[{"sampler":0,"source":0,"name":"202226242_alpha_Map__32.png"},{"sampler":0,"source":1,"name":"199242172_alpha_Map__33.png"}],"images":[{"uri":"202226242_alpha_Map__32.png"},{"uri":"199242172_alpha_Map__33.png"}],"samplers":[{"magFilter":9729,"minFilter":9987}]}