{"asset":{"version":"2.0","generator":"babylon.js glTF exporter for 3dsmax 2022 v20210811.2"},"scene":0,"scenes":[{"nodes":[0,1,2,3,4,5,6,7,8,9,10,11,12,13]}],"nodes":[{"mesh":0,"translation":[0.0,0.0,-0.319495171],"name":"building_base"},{"mesh":1,"translation":[0.0,0.0,-0.319495171],"name":"park"},{"mesh":2,"translation":[-0.102089427,0.0,-0.7384933],"name":"paths_Retopo"},{"mesh":3,"translation":[3.19747915E-06,0.150000051,0.6931765],"scale":[1.0,0.999,1.0],"name":"floor_1"},{"mesh":4,"translation":[3.19747915E-06,0.35,0.6931766],"scale":[1.0,0.999,1.0],"name":"floor_3"},{"mesh":5,"translation":[-0.69691354,4.99848356E-05,0.475030541],"scale":[0.98999995,0.98999995,0.98999995],"name":"room2"},{"mesh":6,"translation":[0.6969188,4.99969465E-05,0.475030929],"scale":[0.98999995,0.98999995,0.98999995],"name":"room1"},{"mesh":7,"translation":[3.100586E-06,0.2500001,0.6931765],"scale":[1.0,0.999,1.0],"name":"floor_2"},{"mesh":8,"translation":[3.19747915E-06,0.0501000434,0.6931765],"scale":[1.0,0.999,1.0],"name":"floor_0"},{"mesh":9,"translation":[3.19747915E-06,0.35,0.6931766],"scale":[1.0,0.999,1.0],"name":"corner_room"},{"mesh":10,"translation":[-0.9887502,0.30005,0.14955838],"rotation":[3.15331832E-08,-0.9917832,1.24242732E-08,-0.127930239],"scale":[0.99999994,1.0,0.99999994],"name":"desks"},{"mesh":11,"translation":[0.577992737,0.0,-0.849401236],"rotation":[0.0,0.7071068,0.0,0.7071067],"scale":[1.14183748,1.14183748,1.14183748],"name":"trees"},{"mesh":12,"translation":[-0.5981985,0.0009999999,-0.5609341],"name":"Lake_Retopo_Retopo"},{"mesh":13,"translation":[0.350443423,0.00228413567,-1.50038],"rotation":[0.0,-0.173648164,0.0,0.9848078],"scale":[0.82688725,0.8268872,0.82688725],"name":"Populate"}],"meshes":[{"primitives":[{"attributes":{"POSITION":1,"TANGENT":2,"NORMAL":3,"TEXCOORD_0":4},"indices":0,"material":0}],"name":"building_base"},{"primitives":[{"attributes":{"POSITION":6,"TANGENT":7,"NORMAL":8,"TEXCOORD_0":9},"indices":5,"material":1}],"name":"park"},{"primitives":[{"attributes":{"POSITION":11,"NORMAL":12},"indices":10,"material":0}],"name":"paths_Retopo"},{"primitives":[{"attributes":{"POSITION":14,"TANGENT":15,"NORMAL":16,"TEXCOORD_0":17},"indices":13,"material":2}],"name":"floor_1"},{"primitives":[{"attributes":{"POSITION":19,"TANGENT":20,"NORMAL":21,"TEXCOORD_0":22},"indices":18,"material":2}],"name":"floor_3"},{"primitives":[{"attributes":{"POSITION":24,"TANGENT":25,"NORMAL":26,"TEXCOORD_0":27},"indices":23,"material":2}],"name":"room2"},{"primitives":[{"attributes":{"POSITION":29,"TANGENT":30,"NORMAL":31,"TEXCOORD_0":32},"indices":28,"material":3}],"name":"room1"},{"primitives":[{"attributes":{"POSITION":34,"TANGENT":35,"NORMAL":36,"TEXCOORD_0":37},"indices":33,"material":2}],"name":"floor_2"},{"primitives":[{"attributes":{"POSITION":39,"TANGENT":40,"NORMAL":41,"TEXCOORD_0":42},"indices":38,"material":2}],"name":"floor_0"},{"primitives":[{"attributes":{"POSITION":44,"TANGENT":45,"NORMAL":46,"TEXCOORD_0":47},"indices":43,"material":2}],"name":"corner_room"},{"primitives":[{"attributes":{"POSITION":49,"TANGENT":50,"NORMAL":51,"TEXCOORD_0":52},"indices":48,"material":1}],"name":"desks"},{"primitives":[{"attributes":{"POSITION":54,"TANGENT":55,"NORMAL":56,"TEXCOORD_0":57},"indices":53,"material":0}],"name":"trees"},{"primitives":[{"attributes":{"POSITION":59,"NORMAL":60},"indices":58,"material":4}],"name":"Lake_Retopo_Retopo"},{"primitives":[{"attributes":{"POSITION":62,"TANGENT":63,"NORMAL":64,"TEXCOORD_0":65},"indices":61,"material":3}],"name":"Populate"}],"accessors":[{"bufferView":0,"componentType":5123,"count":48,"type":"SCALAR","name":"accessorIndices"},{"bufferView":1,"componentType":5126,"count":34,"max":[1.4,0.0,1.75],"min":[-1.4,-0.02,0.1942821],"type":"VEC3","name":"accessorPositions"},{"bufferView":2,"componentType":5126,"count":34,"type":"VEC4","name":"accessorTangents"},{"bufferView":1,"byteOffset":408,"componentType":5126,"count":34,"type":"VEC3","name":"accessorNormals"},{"bufferView":3,"componentType":5126,"count":34,"type":"VEC2","name":"accessorUVs"},{"bufferView":0,"byteOffset":96,"componentType":5123,"count":48,"type":"SCALAR","name":"accessorIndices"},{"bufferView":1,"byteOffset":816,"componentType":5126,"count":34,"max":[1.4,0.0,0.5835244],"min":[-1.4,-0.02,-1.75],"type":"VEC3","name":"accessorPositions"},{"bufferView":2,"byteOffset":544,"componentType":5126,"count":34,"type":"VEC4","name":"accessorTangents"},{"bufferView":1,"byteOffset":1224,"componentType":5126,"count":34,"type":"VEC3","name":"accessorNormals"},{"bufferView":3,"byteOffset":272,"componentType":5126,"count":34,"type":"VEC2","name":"accessorUVs"},{"bufferView":0,"byteOffset":192,"componentType":5123,"count":17040,"type":"SCALAR","name":"accessorIndices"},{"bufferView":1,"byteOffset":1632,"componentType":5126,"count":7604,"max":[1.50208938,0.003026083,1.00125134],"min":[-1.29791045,-2.037338E-08,-1.33104193],"type":"VEC3","name":"accessorPositions"},{"bufferView":1,"byteOffset":92880,"componentType":5126,"count":7604,"type":"VEC3","name":"accessorNormals"},{"bufferView":0,"byteOffset":34272,"componentType":5123,"count":3000,"type":"SCALAR","name":"accessorIndices"},{"bufferView":1,"byteOffset":184128,"componentType":5126,"count":1100,"max":[1.28844833,0.05,0.6352903],"min":[-1.28844833,-0.05,-0.6346624],"type":"VEC3","name":"accessorPositions"},{"bufferView":2,"byteOffset":1088,"componentType":5126,"count":1100,"type":"VEC4","name":"accessorTangents"},{"bufferView":1,"byteOffset":197328,"componentType":5126,"count":1100,"type":"VEC3","name":"accessorNormals"},{"bufferView":3,"byteOffset":544,"componentType":5126,"count":1100,"type":"VEC2","name":"accessorUVs"},{"bufferView":0,"byteOffset":40272,"componentType":5123,"count":852,"type":"SCALAR","name":"accessorIndices"},{"bufferView":1,"byteOffset":210528,"componentType":5126,"count":354,"max":[1.28844833,0.05,0.24703981],"min":[-1.28844833,-0.05,-0.6346624],"type":"VEC3","name":"accessorPositions"},{"bufferView":2,"byteOffset":18688,"componentType":5126,"count":354,"type":"VEC4","name":"accessorTangents"},{"bufferView":1,"byteOffset":214776,"componentType":5126,"count":354,"type":"VEC3","name":"accessorNormals"},{"bufferView":3,"byteOffset":9344,"componentType":5126,"count":354,"type":"VEC2","name":"accessorUVs"},{"bufferView":0,"byteOffset":41976,"componentType":5123,"count":324,"type":"SCALAR","name":"accessorIndices"},{"bufferView":1,"byteOffset":219024,"componentType":5126,"count":116,"max":[0.362456083,0.198900566,0.273432076],"min":[-0.362456053,0.0,-0.273432136],"type":"VEC3","name":"accessorPositions"},{"bufferView":2,"byteOffset":24352,"componentType":5126,"count":116,"type":"VEC4","name":"accessorTangents"},{"bufferView":1,"byteOffset":220416,"componentType":5126,"count":116,"type":"VEC3","name":"accessorNormals"},{"bufferView":3,"byteOffset":12176,"componentType":5126,"count":116,"type":"VEC2","name":"accessorUVs"},{"bufferView":0,"byteOffset":42624,"componentType":5123,"count":324,"type":"SCALAR","name":"accessorIndices"},{"bufferView":1,"byteOffset":221808,"componentType":5126,"count":116,"max":[0.362456024,0.19890058,0.273432],"min":[-0.362456053,-1.71796675E-08,-0.2734321],"type":"VEC3","name":"accessorPositions"},{"bufferView":2,"byteOffset":26208,"componentType":5126,"count":116,"type":"VEC4","name":"accessorTangents"},{"bufferView":1,"byteOffset":223200,"componentType":5126,"count":116,"type":"VEC3","name":"accessorNormals"},{"bufferView":3,"byteOffset":13104,"componentType":5126,"count":116,"type":"VEC2","name":"accessorUVs"},{"bufferView":0,"byteOffset":43272,"componentType":5123,"count":1608,"type":"SCALAR","name":"accessorIndices"},{"bufferView":1,"byteOffset":224592,"componentType":5126,"count":639,"max":[1.28844833,0.05,0.6352903],"min":[-1.28844833,-0.05,-0.6346624],"type":"VEC3","name":"accessorPositions"},{"bufferView":2,"byteOffset":28064,"componentType":5126,"count":639,"type":"VEC4","name":"accessorTangents"},{"bufferView":1,"byteOffset":232260,"componentType":5126,"count":639,"type":"VEC3","name":"accessorNormals"},{"bufferView":3,"byteOffset":14032,"componentType":5126,"count":639,"type":"VEC2","name":"accessorUVs"},{"bufferView":0,"byteOffset":46488,"componentType":5123,"count":3000,"type":"SCALAR","name":"accessorIndices"},{"bufferView":1,"byteOffset":239928,"componentType":5126,"count":1120,"max":[1.28844833,0.05,0.6352903],"min":[-1.28844833,-0.0500713773,-0.6346624],"type":"VEC3","name":"accessorPositions"},{"bufferView":2,"byteOffset":38288,"componentType":5126,"count":1120,"type":"VEC4","name":"accessorTangents"},{"bufferView":1,"byteOffset":253368,"componentType":5126,"count":1120,"type":"VEC3","name":"accessorNormals"},{"bufferView":3,"byteOffset":19144,"componentType":5126,"count":1120,"type":"VEC2","name":"accessorUVs"},{"bufferView":0,"byteOffset":52488,"componentType":5123,"count":156,"type":"SCALAR","name":"accessorIndices"},{"bufferView":1,"byteOffset":266808,"componentType":5126,"count":86,"max":[-0.8749042,0.05,-0.349651068],"min":[-1.19230008,-0.05,-0.6346624],"type":"VEC3","name":"accessorPositions"},{"bufferView":2,"byteOffset":56208,"componentType":5126,"count":86,"type":"VEC4","name":"accessorTangents"},{"bufferView":1,"byteOffset":267840,"componentType":5126,"count":86,"type":"VEC3","name":"accessorNormals"},{"bufferView":3,"byteOffset":28104,"componentType":5126,"count":86,"type":"VEC2","name":"accessorUVs"},{"bufferView":0,"byteOffset":52800,"componentType":5123,"count":3528,"type":"SCALAR","name":"accessorIndices"},{"bufferView":1,"byteOffset":268872,"componentType":5126,"count":1936,"max":[0.138044074,0.05340308,0.0268554222],"min":[-0.0972069949,-7.56979E-10,-0.151384369],"type":"VEC3","name":"accessorPositions"},{"bufferView":2,"byteOffset":57584,"componentType":5126,"count":1936,"type":"VEC4","name":"accessorTangents"},{"bufferView":1,"byteOffset":292104,"componentType":5126,"count":1936,"type":"VEC3","name":"accessorNormals"},{"bufferView":3,"byteOffset":28792,"componentType":5126,"count":1936,"type":"VEC2","name":"accessorUVs"},{"bufferView":0,"byteOffset":59856,"componentType":5123,"count":6720,"type":"SCALAR","name":"accessorIndices"},{"bufferView":1,"byteOffset":315336,"componentType":5126,"count":5823,"max":[0.9251645,0.236892268,0.243821785],"min":[-0.532147169,-4.84466547E-08,-1.671418],"type":"VEC3","name":"accessorPositions"},{"bufferView":2,"byteOffset":88560,"componentType":5126,"count":5823,"type":"VEC4","name":"accessorTangents"},{"bufferView":1,"byteOffset":385212,"componentType":5126,"count":5823,"type":"VEC3","name":"accessorNormals"},{"bufferView":3,"byteOffset":44280,"componentType":5126,"count":5823,"type":"VEC2","name":"accessorUVs"},{"bufferView":0,"byteOffset":73296,"componentType":5123,"count":762,"type":"SCALAR","name":"accessorIndices"},{"bufferView":1,"byteOffset":455088,"componentType":5126,"count":254,"max":[0.138899609,0.0009893831,0.150243536],"min":[-0.1219189,-4.40041571E-20,-0.154098466],"type":"VEC3","name":"accessorPositions"},{"bufferView":1,"byteOffset":458136,"componentType":5126,"count":254,"type":"VEC3","name":"accessorNormals"},{"bufferView":0,"byteOffset":74820,"componentType":5123,"count":21759,"type":"SCALAR","name":"accessorIndices"},{"bufferView":1,"byteOffset":461184,"componentType":5126,"count":21566,"max":[1.74931359,0.0446387753,3.27917814],"min":[-1.64690912,-0.002742317,-0.008089956],"type":"VEC3","name":"accessorPositions"},{"bufferView":2,"byteOffset":181728,"componentType":5126,"count":21566,"type":"VEC4","name":"accessorTangents"},{"bufferView":1,"byteOffset":719976,"componentType":5126,"count":21566,"type":"VEC3","name":"accessorNormals"},{"bufferView":3,"byteOffset":90864,"componentType":5126,"count":21566,"type":"VEC2","name":"accessorUVs"}],"bufferViews":[{"buffer":0,"byteLength":118340,"name":"bufferViewScalar"},{"buffer":0,"byteOffset":118340,"byteLength":978768,"byteStride":12,"name":"bufferViewFloatVec3"},{"buffer":0,"byteOffset":1097108,"byteLength":526784,"byteStride":16,"name":"bufferViewFloatVec4"},{"buffer":0,"byteOffset":1623892,"byteLength":263392,"byteStride":8,"name":"bufferViewFloatVec2"}],"buffers":[{"uri":"campus.bin","byteLength":1887284}],"materials":[{"pbrMetallicRoughness":{"baseColorFactor":[0.839,0.839,0.839,1.0],"metallicFactor":0.0,"roughnessFactor":0.85},"doubleSided":true,"name":"base_concrate","extras":{"babylonSeparateCullingPass":false}},{"pbrMetallicRoughness":{"metallicFactor":0.0,"roughnessFactor":0.85},"doubleSided":true,"name":"park","extras":{"babylonSeparateCullingPass":false}},{"pbrMetallicRoughness":{"baseColorFactor":[0.36,0.68,0.89,1.0],"metallicFactor":0.0,"roughnessFactor":0.85},"doubleSided":true,"name":"Building","extras":{"babylonSeparateCullingPass":false}},{"pbrMetallicRoughness":{"baseColorFactor":[0.478431374,0.478431374,0.478431374,1.0],"metallicFactor":0.0,"roughnessFactor":0.85},"doubleSided":true,"name":"people","extras":{"babylonSeparateCullingPass":false}},{"pbrMetallicRoughness":{"baseColorFactor":[0.75686276,0.8784314,0.956862748,1.0],"metallicFactor":0.0,"roughnessFactor":0.6},"doubleSided":true,"name":"lake","extras":{"babylonSeparateCullingPass":false}}]}