{"asset":{"version":"2.0","generator":"babylon.js glTF exporter for 3dsmax 2022 v20210811.2"},"scene":0,"scenes":[{"nodes":[0,1,6,7,8,23]}],"nodes":[{"mesh":0,"translation":[-0.102089427,0.0,-0.7384933],"name":"paths"},{"children":[2,3,4,5],"translation":[3.14903264E-06,0.2,0.693490446],"name":"building"},{"mesh":1,"translation":[4.84466547E-08,-0.15,-0.000313934317],"name":"floor_0"},{"mesh":2,"translation":[4.84466547E-08,-0.0499999523,-0.000313934317],"name":"floor_1"},{"mesh":3,"translation":[4.84466547E-08,0.15,-0.00031383743],"name":"floor_3"},{"mesh":4,"translation":[-4.84466547E-08,0.0500000976,-0.000313934317],"name":"floor_2"},{"mesh":5,"translation":[0.0,0.0,-0.319495171],"name":"building_base"},{"mesh":6,"translation":[0.0,0.0,-0.319495171],"name":"park"},{"children":[9,10,11,12,13,14,15,16,17,18,19,20,21,22],"translation":[-0.237399027,0.180328339,-1.07565272],"name":"trees"},{"mesh":7,"translation":[0.718269348,-0.180328339,-0.2592022],"scale":[1.22592854,1.22592854,1.22592854],"name":"tree00"},{"mesh":8,"translation":[0.6841273,-0.180328339,-0.551938],"scale":[1.52245,1.52245,1.52245],"name":"tree01"},{"mesh":9,"translation":[0.418178767,-0.180328339,-0.5080231],"rotation":[0.0,0.461748719,0.0,0.887010753],"scale":[1.52244961,1.3918364,1.52244961],"name":"tree02"},{"mesh":10,"translation":[0.8135077,-0.180328339,-0.759715259],"rotation":[0.0,0.5735765,0.0,0.819152],"scale":[1.52245009,1.34048939,1.52245009],"name":"tree03"},{"mesh":11,"translation":[0.9063408,-0.180328339,-0.00300272368],"scale":[1.52245,1.30888236,1.52245],"name":"tree04"},{"mesh":12,"translation":[0.8153918,-0.180328339,0.2262515],"rotation":[0.0,0.7071068,0.0,0.7071067],"scale":[1.52245,1.52245,1.52245],"name":"tree005"},{"mesh":13,"translation":[1.03463662,-0.180328339,0.456706434],"rotation":[0.0,-0.6755903,0.0,0.737277269],"scale":[1.52245009,1.39150965,1.52245009],"name":"tree006"},{"mesh":14,"translation":[0.101842061,-0.180328339,-0.638903439],"rotation":[0.0,-0.6755901,0.0,0.737277448],"scale":[1.52245009,1.52245,1.52245009],"name":"tree007"},{"mesh":15,"translation":[-0.430204928,-0.180328339,-0.634704053],"scale":[1.52245,1.52245,1.52245],"name":"tree008"},{"mesh":16,"translation":[-1.03183234,-0.180328339,0.1761375],"rotation":[0.0,0.6755902,0.0,0.7372773],"scale":[1.52245009,1.14208293,1.52245009],"name":"tree009"},{"mesh":17,"translation":[-0.5283792,-0.180328339,0.366221249],"rotation":[0.0,-0.9063078,0.0,-0.42261824],"scale":[1.75812519,1.75812519,1.75812519],"name":"tree010"},{"mesh":18,"translation":[-0.5284553,-0.180328339,-0.231642827],"rotation":[0.0,-0.999048233,0.0,0.04361966],"scale":[1.37600827,1.37600827,1.37600827],"name":"tree011"},{"mesh":19,"translation":[-0.996295,-0.180328339,-0.354881048],"rotation":[0.0,-0.7071068,0.0,0.7071067],"scale":[1.52245,1.52245,1.52245],"name":"tree012"},{"mesh":20,"translation":[-0.6138037,-0.180328339,0.7746788],"rotation":[0.0,-0.866025448,0.0,-0.49999994],"scale":[1.52245009,1.52245,1.52245009],"name":"tree013"},{"mesh":21,"translation":[-0.5981985,0.0009999999,-0.5609341],"name":"Line001"}],"meshes":[{"primitives":[{"attributes":{"POSITION":1,"NORMAL":2},"indices":0,"material":0}],"name":"paths"},{"primitives":[{"attributes":{"POSITION":4,"NORMAL":5,"TEXCOORD_0":6},"indices":3,"material":1}],"name":"floor_0"},{"primitives":[{"attributes":{"POSITION":8,"NORMAL":9,"TEXCOORD_0":10},"indices":7,"material":1}],"name":"floor_1"},{"primitives":[{"attributes":{"POSITION":12,"NORMAL":13,"TEXCOORD_0":14},"indices":11,"material":1}],"name":"floor_3"},{"primitives":[{"attributes":{"POSITION":16,"NORMAL":17,"TEXCOORD_0":18},"indices":15,"material":1}],"name":"floor_2"},{"primitives":[{"attributes":{"POSITION":20,"NORMAL":21,"TEXCOORD_0":22},"indices":19,"material":2}],"name":"building_base"},{"primitives":[{"attributes":{"POSITION":24,"NORMAL":25,"TEXCOORD_0":26},"indices":23,"material":3}],"name":"park"},{"primitives":[{"attributes":{"POSITION":28,"NORMAL":29,"TEXCOORD_0":30},"indices":27,"material":4}],"name":"tree00"},{"primitives":[{"attributes":{"POSITION":32,"NORMAL":33,"TEXCOORD_0":34},"indices":31,"material":4}],"name":"tree01"},{"primitives":[{"attributes":{"POSITION":36,"NORMAL":37,"TEXCOORD_0":38},"indices":35,"material":4}],"name":"tree02"},{"primitives":[{"attributes":{"POSITION":40,"NORMAL":41,"TEXCOORD_0":42},"indices":39,"material":4}],"name":"tree03"},{"primitives":[{"attributes":{"POSITION":44,"NORMAL":45,"TEXCOORD_0":46},"indices":43,"material":4}],"name":"tree04"},{"primitives":[{"attributes":{"POSITION":48,"NORMAL":49,"TEXCOORD_0":50},"indices":47,"material":4}],"name":"tree005"},{"primitives":[{"attributes":{"POSITION":52,"NORMAL":53,"TEXCOORD_0":54},"indices":51,"material":4}],"name":"tree006"},{"primitives":[{"attributes":{"POSITION":56,"NORMAL":57,"TEXCOORD_0":58},"indices":55,"material":4}],"name":"tree007"},{"primitives":[{"attributes":{"POSITION":60,"NORMAL":61,"TEXCOORD_0":62},"indices":59,"material":4}],"name":"tree008"},{"primitives":[{"attributes":{"POSITION":64,"NORMAL":65,"TEXCOORD_0":66},"indices":63,"material":4}],"name":"tree009"},{"primitives":[{"attributes":{"POSITION":68,"NORMAL":69,"TEXCOORD_0":70},"indices":67,"material":4}],"name":"tree010"},{"primitives":[{"attributes":{"POSITION":72,"NORMAL":73,"TEXCOORD_0":74},"indices":71,"material":4}],"name":"tree011"},{"primitives":[{"attributes":{"POSITION":76,"NORMAL":77,"TEXCOORD_0":78},"indices":75,"material":4}],"name":"tree012"},{"primitives":[{"attributes":{"POSITION":80,"NORMAL":81,"TEXCOORD_0":82},"indices":79,"material":4}],"name":"tree013"},{"primitives":[{"attributes":{"POSITION":84,"NORMAL":85},"indices":83,"material":5}],"name":"Line001"}],"accessors":[{"bufferView":0,"componentType":5123,"count":4146,"type":"SCALAR","name":"accessorIndices"},{"bufferView":1,"componentType":5126,"count":1564,"max":[1.31486356,0.00381000014,1.00136542],"min":[-1.22640622,0.0,-1.223826],"type":"VEC3","name":"accessorPositions"},{"bufferView":1,"byteOffset":18768,"componentType":5126,"count":1564,"type":"VEC3","name":"accessorNormals"},{"bufferView":0,"byteOffset":8292,"componentType":5123,"count":1152,"type":"SCALAR","name":"accessorIndices"},{"bufferView":1,"byteOffset":37536,"componentType":5126,"count":416,"max":[1.28844833,0.05,0.6352903],"min":[-1.28844833,-0.05,-0.6346624],"type":"VEC3","name":"accessorPositions"},{"bufferView":1,"byteOffset":42528,"componentType":5126,"count":416,"type":"VEC3","name":"accessorNormals"},{"bufferView":2,"componentType":5126,"count":416,"type":"VEC2","name":"accessorUVs"},{"bufferView":0,"byteOffset":10596,"componentType":5123,"count":1308,"type":"SCALAR","name":"accessorIndices"},{"bufferView":1,"byteOffset":47520,"componentType":5126,"count":454,"max":[1.28844833,0.05,0.6352903],"min":[-1.28844833,-0.05,-0.6346624],"type":"VEC3","name":"accessorPositions"},{"bufferView":1,"byteOffset":52968,"componentType":5126,"count":454,"type":"VEC3","name":"accessorNormals"},{"bufferView":2,"byteOffset":3328,"componentType":5126,"count":454,"type":"VEC2","name":"accessorUVs"},{"bufferView":0,"byteOffset":13212,"componentType":5123,"count":852,"type":"SCALAR","name":"accessorIndices"},{"bufferView":1,"byteOffset":58416,"componentType":5126,"count":302,"max":[1.28844833,0.05,0.24703981],"min":[-1.28844833,-0.05,-0.6346624],"type":"VEC3","name":"accessorPositions"},{"bufferView":1,"byteOffset":62040,"componentType":5126,"count":302,"type":"VEC3","name":"accessorNormals"},{"bufferView":2,"byteOffset":6960,"componentType":5126,"count":302,"type":"VEC2","name":"accessorUVs"},{"bufferView":0,"byteOffset":14916,"componentType":5123,"count":1308,"type":"SCALAR","name":"accessorIndices"},{"bufferView":1,"byteOffset":65664,"componentType":5126,"count":454,"max":[1.28844833,0.05,0.6352903],"min":[-1.28844833,-0.05,-0.6346624],"type":"VEC3","name":"accessorPositions"},{"bufferView":1,"byteOffset":71112,"componentType":5126,"count":454,"type":"VEC3","name":"accessorNormals"},{"bufferView":2,"byteOffset":9376,"componentType":5126,"count":454,"type":"VEC2","name":"accessorUVs"},{"bufferView":0,"byteOffset":17532,"componentType":5123,"count":9,"type":"SCALAR","name":"accessorIndices"},{"bufferView":1,"byteOffset":76560,"componentType":5126,"count":5,"max":[1.4,0.0,1.75],"min":[-1.4,0.0,0.1942821],"type":"VEC3","name":"accessorPositions"},{"bufferView":1,"byteOffset":76620,"componentType":5126,"count":5,"type":"VEC3","name":"accessorNormals"},{"bufferView":2,"byteOffset":13008,"componentType":5126,"count":5,"type":"VEC2","name":"accessorUVs"},{"bufferView":0,"byteOffset":17552,"componentType":5123,"count":9,"type":"SCALAR","name":"accessorIndices"},{"bufferView":1,"byteOffset":76680,"componentType":5126,"count":5,"max":[1.4,0.0,0.5835244],"min":[-1.4,0.0,-1.75],"type":"VEC3","name":"accessorPositions"},{"bufferView":1,"byteOffset":76740,"componentType":5126,"count":5,"type":"VEC3","name":"accessorNormals"},{"bufferView":2,"byteOffset":13048,"componentType":5126,"count":5,"type":"VEC2","name":"accessorUVs"},{"bufferView":0,"byteOffset":17572,"componentType":5123,"count":480,"type":"SCALAR","name":"accessorIndices"},{"bufferView":1,"byteOffset":76800,"componentType":5126,"count":390,"max":[0.0549246557,0.208825961,0.05413573],"min":[-0.04902742,0.0,-0.0536878],"type":"VEC3","name":"accessorPositions"},{"bufferView":1,"byteOffset":81480,"componentType":5126,"count":390,"type":"VEC3","name":"accessorNormals"},{"bufferView":2,"byteOffset":13088,"componentType":5126,"count":390,"type":"VEC2","name":"accessorUVs"},{"bufferView":0,"byteOffset":18532,"componentType":5123,"count":480,"type":"SCALAR","name":"accessorIndices"},{"bufferView":1,"byteOffset":86160,"componentType":5126,"count":390,"max":[0.0499894246,0.205137089,0.0554035567],"min":[-0.0562730432,0.0,-0.0512651466],"type":"VEC3","name":"accessorPositions"},{"bufferView":1,"byteOffset":90840,"componentType":5126,"count":390,"type":"VEC3","name":"accessorNormals"},{"bufferView":2,"byteOffset":16208,"componentType":5126,"count":390,"type":"VEC2","name":"accessorUVs"},{"bufferView":0,"byteOffset":19492,"componentType":5123,"count":480,"type":"SCALAR","name":"accessorIndices"},{"bufferView":1,"byteOffset":95520,"componentType":5126,"count":390,"max":[0.05659274,0.21277611,0.0501053035],"min":[-0.0492044352,0.0,-0.0551696867],"type":"VEC3","name":"accessorPositions"},{"bufferView":1,"byteOffset":100200,"componentType":5126,"count":390,"type":"VEC3","name":"accessorNormals"},{"bufferView":2,"byteOffset":19328,"componentType":5126,"count":390,"type":"VEC2","name":"accessorUVs"},{"bufferView":0,"byteOffset":20452,"componentType":5123,"count":480,"type":"SCALAR","name":"accessorIndices"},{"bufferView":1,"byteOffset":104880,"componentType":5126,"count":390,"max":[0.0583138578,0.208195284,0.0609624051],"min":[-0.0607661381,0.0,-0.0557714067],"type":"VEC3","name":"accessorPositions"},{"bufferView":1,"byteOffset":109560,"componentType":5126,"count":390,"type":"VEC3","name":"accessorNormals"},{"bufferView":2,"byteOffset":22448,"componentType":5126,"count":390,"type":"VEC2","name":"accessorUVs"},{"bufferView":0,"byteOffset":21412,"componentType":5123,"count":480,"type":"SCALAR","name":"accessorIndices"},{"bufferView":1,"byteOffset":114240,"componentType":5126,"count":390,"max":[0.0508380421,0.207986042,0.0563334078],"min":[-0.05552556,0.0,-0.05525125],"type":"VEC3","name":"accessorPositions"},{"bufferView":1,"byteOffset":118920,"componentType":5126,"count":390,"type":"VEC3","name":"accessorNormals"},{"bufferView":2,"byteOffset":25568,"componentType":5126,"count":390,"type":"VEC2","name":"accessorUVs"},{"bufferView":0,"byteOffset":22372,"componentType":5123,"count":480,"type":"SCALAR","name":"accessorIndices"},{"bufferView":1,"byteOffset":123600,"componentType":5126,"count":390,"max":[0.0549246557,0.208825961,0.05413573],"min":[-0.04902742,0.0,-0.0536878],"type":"VEC3","name":"accessorPositions"},{"bufferView":1,"byteOffset":128280,"componentType":5126,"count":390,"type":"VEC3","name":"accessorNormals"},{"bufferView":2,"byteOffset":28688,"componentType":5126,"count":390,"type":"VEC2","name":"accessorUVs"},{"bufferView":0,"byteOffset":23332,"componentType":5123,"count":480,"type":"SCALAR","name":"accessorIndices"},{"bufferView":1,"byteOffset":132960,"componentType":5126,"count":390,"max":[0.0499894246,0.205137119,0.0554035567],"min":[-0.0562730432,1.21116637E-08,-0.0512651466],"type":"VEC3","name":"accessorPositions"},{"bufferView":1,"byteOffset":137640,"componentType":5126,"count":390,"type":"VEC3","name":"accessorNormals"},{"bufferView":2,"byteOffset":31808,"componentType":5126,"count":390,"type":"VEC2","name":"accessorUVs"},{"bufferView":0,"byteOffset":24292,"componentType":5123,"count":480,"type":"SCALAR","name":"accessorIndices"},{"bufferView":1,"byteOffset":142320,"componentType":5126,"count":390,"max":[0.05659274,0.212776139,0.0501053035],"min":[-0.0492044352,1.21116637E-08,-0.0551696867],"type":"VEC3","name":"accessorPositions"},{"bufferView":1,"byteOffset":147000,"componentType":5126,"count":390,"type":"VEC3","name":"accessorNormals"},{"bufferView":2,"byteOffset":34928,"componentType":5126,"count":390,"type":"VEC2","name":"accessorUVs"},{"bufferView":0,"byteOffset":25252,"componentType":5123,"count":480,"type":"SCALAR","name":"accessorIndices"},{"bufferView":1,"byteOffset":151680,"componentType":5126,"count":390,"max":[0.0549246557,0.208825961,0.05413573],"min":[-0.04902742,0.0,-0.0536878],"type":"VEC3","name":"accessorPositions"},{"bufferView":1,"byteOffset":156360,"componentType":5126,"count":390,"type":"VEC3","name":"accessorNormals"},{"bufferView":2,"byteOffset":38048,"componentType":5126,"count":390,"type":"VEC2","name":"accessorUVs"},{"bufferView":0,"byteOffset":26212,"componentType":5123,"count":480,"type":"SCALAR","name":"accessorIndices"},{"bufferView":1,"byteOffset":161040,"componentType":5126,"count":390,"max":[0.0549246557,0.208825961,0.05413573],"min":[-0.04902742,1.21116637E-08,-0.0536878],"type":"VEC3","name":"accessorPositions"},{"bufferView":1,"byteOffset":165720,"componentType":5126,"count":390,"type":"VEC3","name":"accessorNormals"},{"bufferView":2,"byteOffset":41168,"componentType":5126,"count":390,"type":"VEC2","name":"accessorUVs"},{"bufferView":0,"byteOffset":27172,"componentType":5123,"count":480,"type":"SCALAR","name":"accessorIndices"},{"bufferView":1,"byteOffset":170400,"componentType":5126,"count":390,"max":[0.0499894246,0.205137089,0.0554035567],"min":[-0.0562730432,0.0,-0.0512651466],"type":"VEC3","name":"accessorPositions"},{"bufferView":1,"byteOffset":175080,"componentType":5126,"count":390,"type":"VEC3","name":"accessorNormals"},{"bufferView":2,"byteOffset":44288,"componentType":5126,"count":390,"type":"VEC2","name":"accessorUVs"},{"bufferView":0,"byteOffset":28132,"componentType":5123,"count":480,"type":"SCALAR","name":"accessorIndices"},{"bufferView":1,"byteOffset":179760,"componentType":5126,"count":390,"max":[0.05659274,0.212776139,0.0501053035],"min":[-0.0492044352,1.21116637E-08,-0.0551696867],"type":"VEC3","name":"accessorPositions"},{"bufferView":1,"byteOffset":184440,"componentType":5126,"count":390,"type":"VEC3","name":"accessorNormals"},{"bufferView":2,"byteOffset":47408,"componentType":5126,"count":390,"type":"VEC2","name":"accessorUVs"},{"bufferView":0,"byteOffset":29092,"componentType":5123,"count":480,"type":"SCALAR","name":"accessorIndices"},{"bufferView":1,"byteOffset":189120,"componentType":5126,"count":390,"max":[0.0583138578,0.208195284,0.0609624051],"min":[-0.0607661381,0.0,-0.0557714067],"type":"VEC3","name":"accessorPositions"},{"bufferView":1,"byteOffset":193800,"componentType":5126,"count":390,"type":"VEC3","name":"accessorNormals"},{"bufferView":2,"byteOffset":50528,"componentType":5126,"count":390,"type":"VEC2","name":"accessorUVs"},{"bufferView":0,"byteOffset":30052,"componentType":5123,"count":480,"type":"SCALAR","name":"accessorIndices"},{"bufferView":1,"byteOffset":198480,"componentType":5126,"count":390,"max":[0.0508380421,0.207986042,0.0563334078],"min":[-0.05552556,0.0,-0.05525125],"type":"VEC3","name":"accessorPositions"},{"bufferView":1,"byteOffset":203160,"componentType":5126,"count":390,"type":"VEC3","name":"accessorNormals"},{"bufferView":2,"byteOffset":53648,"componentType":5126,"count":390,"type":"VEC2","name":"accessorUVs"},{"bufferView":0,"byteOffset":31012,"componentType":5123,"count":516,"type":"SCALAR","name":"accessorIndices"},{"bufferView":1,"byteOffset":207840,"componentType":5126,"count":192,"max":[0.139138624,0.0009999999,0.149051338],"min":[-0.116400182,0.0,-0.151821151],"type":"VEC3","name":"accessorPositions"},{"bufferView":1,"byteOffset":210144,"componentType":5126,"count":192,"type":"VEC3","name":"accessorNormals"}],"bufferViews":[{"buffer":0,"byteLength":32044,"name":"bufferViewScalar"},{"buffer":0,"byteOffset":32044,"byteLength":212448,"byteStride":12,"name":"bufferViewFloatVec3"},{"buffer":0,"byteOffset":244492,"byteLength":56768,"byteStride":8,"name":"bufferViewFloatVec2"}],"buffers":[{"uri":"campus_test_1.bin","byteLength":301260}],"materials":[{"pbrMetallicRoughness":{"baseColorFactor":[0.50359714,0.463789225,0.379197419,1.0],"metallicFactor":0.1,"roughnessFactor":0.6},"doubleSided":true,"name":"path","extras":{"babylonSeparateCullingPass":false}},{"pbrMetallicRoughness":{"baseColorFactor":[0.0,0.100719452,0.50359714,1.0],"baseColorTexture":{"index":0},"metallicFactor":0.1,"roughnessFactor":0.5},"alphaMode":"BLEND","doubleSided":true,"name":"building","extras":{"babylonSeparateCullingPass":false}},{"pbrMetallicRoughness":{"baseColorFactor":[0.230215833,0.230215833,0.230215833,1.0],"metallicFactor":0.1,"roughnessFactor":0.6},"doubleSided":true,"name":"base","extras":{"babylonSeparateCullingPass":false}},{"pbrMetallicRoughness":{"baseColorFactor":[0.50359714,0.463789225,0.379197419,1.0],"baseColorTexture":{"index":1},"metallicFactor":0.0,"roughnessFactor":0.9},"doubleSided":true,"name":"park","extras":{"babylonSeparateCullingPass":false}},{"pbrMetallicRoughness":{"baseColorFactor":[0.129411772,0.105882354,0.0,1.0],"metallicFactor":0.1,"roughnessFactor":0.6},"doubleSided":true,"name":"trees","extras":{"babylonSeparateCullingPass":false}},{"pbrMetallicRoughness":{"baseColorFactor":[0.0117647061,0.0235294122,0.223529413,1.0],"metallicFactor":0.75,"roughnessFactor":0.1},"doubleSided":true,"name":"water","extras":{"babylonSeparateCullingPass":false}}],"textures":[{"sampler":0,"source":0,"name":"025128_alpha_Map__12.png"},{"sampler":0,"source":1,"name":"forest-green-grunge-texture-634823051.jpg"}],"images":[{"uri":"025128_alpha_Map__12.png"},{"uri":"forest-green-grunge-texture-634823051.jpg"}],"samplers":[{"magFilter":9729,"minFilter":9987}]}