{"asset":{"version":"2.0","generator":"babylon.js glTF exporter for 3dsmax 2022 v20210811.2"},"scene":0,"scenes":[{"nodes":[0,7,8,9,24,25]}],"nodes":[{"children":[1,2,3,4,5,6],"translation":[3.14903264E-06,0.2,0.693490446],"name":"building"},{"mesh":0,"translation":[4.84466547E-08,-0.15,-0.000313934317],"scale":[1.0,0.999,1.0],"name":"floor_0"},{"mesh":1,"translation":[4.84466547E-08,-0.0499999523,-0.000313934317],"scale":[1.0,0.999,1.0],"name":"floor_1"},{"mesh":2,"translation":[4.84466547E-08,0.15,-0.00031383743],"scale":[1.0,0.999,1.0],"name":"floor_3"},{"mesh":3,"translation":[-4.84466547E-08,0.0500000976,-0.000313934317],"scale":[1.0,0.999,1.0],"name":"floor_2"},{"mesh":4,"translation":[-0.6969167,-0.19995001,-0.218459919],"scale":[0.98999995,0.98999995,0.98999995],"name":"room2"},{"mesh":5,"translation":[0.6969156,-0.19995001,-0.218459532],"scale":[0.98999995,0.98999995,0.98999995],"name":"room1"},{"mesh":6,"translation":[0.0,0.0,-0.319495171],"name":"building_base"},{"mesh":7,"translation":[0.0,0.0,-0.319495171],"name":"park"},{"children":[10,11,12,13,14,15,16,17,18,19,20,21,22,23],"translation":[-0.237399027,0.180328339,-1.07565272],"name":"trees"},{"mesh":8,"translation":[0.718269348,-0.180328339,-0.2592022],"scale":[1.22592854,1.22592854,1.22592854],"name":"tree00"},{"mesh":9,"translation":[0.6841273,-0.180328339,-0.551938],"scale":[1.52245,1.52245,1.52245],"name":"tree01"},{"mesh":10,"translation":[0.418178767,-0.180328339,-0.5080231],"rotation":[0.0,0.461748719,0.0,0.887010753],"scale":[1.52244961,1.3918364,1.52244961],"name":"tree02"},{"mesh":11,"translation":[0.8135077,-0.180328339,-0.759715259],"rotation":[0.0,0.5735765,0.0,0.819152],"scale":[1.52245009,1.34048939,1.52245009],"name":"tree03"},{"mesh":12,"translation":[0.9063408,-0.180328339,-0.00300272368],"scale":[1.52245,1.30888236,1.52245],"name":"tree04"},{"mesh":13,"translation":[0.8153918,-0.180328339,0.2262515],"rotation":[0.0,0.7071068,0.0,0.7071067],"scale":[1.52245,1.52245,1.52245],"name":"tree005"},{"mesh":14,"translation":[1.03463662,-0.180328339,0.456706434],"rotation":[0.0,-0.6755903,0.0,0.737277269],"scale":[1.52245009,1.39150965,1.52245009],"name":"tree006"},{"mesh":15,"translation":[0.101842061,-0.180328339,-0.638903439],"rotation":[0.0,-0.6755901,0.0,0.737277448],"scale":[1.52245009,1.52245,1.52245009],"name":"tree007"},{"mesh":16,"translation":[-0.430204928,-0.180328339,-0.634704053],"scale":[1.52245,1.52245,1.52245],"name":"tree008"},{"mesh":17,"translation":[-1.03183234,-0.180328339,0.1761375],"rotation":[0.0,0.6755902,0.0,0.7372773],"scale":[1.52245009,1.14208293,1.52245009],"name":"tree009"},{"mesh":18,"translation":[-0.5283792,-0.180328339,0.366221249],"rotation":[0.0,-0.9063078,0.0,-0.42261824],"scale":[1.75812519,1.75812519,1.75812519],"name":"tree010"},{"mesh":19,"translation":[-0.5284553,-0.180328339,-0.231642827],"rotation":[0.0,-0.999048233,0.0,0.04361966],"scale":[1.37600827,1.37600827,1.37600827],"name":"tree011"},{"mesh":20,"translation":[-0.996295,-0.180328339,-0.354881048],"rotation":[0.0,-0.7071068,0.0,0.7071067],"scale":[1.52245,1.52245,1.52245],"name":"tree012"},{"mesh":21,"translation":[-0.6138037,-0.180328339,0.7746788],"rotation":[0.0,-0.866025448,0.0,-0.49999994],"scale":[1.52245009,1.52245,1.52245009],"name":"tree013"},{"mesh":22,"translation":[-0.102089427,0.0,-0.7384933],"name":"paths_Retopo"},{"mesh":23,"translation":[-0.5981985,0.0009999999,-0.5609341],"name":"Lake_Retopo"}],"meshes":[{"primitives":[{"attributes":{"POSITION":1,"NORMAL":2,"TEXCOORD_0":3},"indices":0,"material":0}],"name":"floor_0"},{"primitives":[{"attributes":{"POSITION":5,"NORMAL":6,"TEXCOORD_0":7},"indices":4,"material":0}],"name":"floor_1"},{"primitives":[{"attributes":{"POSITION":9,"NORMAL":10,"TEXCOORD_0":11},"indices":8,"material":0}],"name":"floor_3"},{"primitives":[{"attributes":{"POSITION":13,"NORMAL":14,"TEXCOORD_0":15},"indices":12,"material":0}],"name":"floor_2"},{"primitives":[{"attributes":{"POSITION":17,"NORMAL":18,"TEXCOORD_0":19},"indices":16,"material":1}],"name":"room2"},{"primitives":[{"attributes":{"POSITION":21,"NORMAL":22,"TEXCOORD_0":23},"indices":20,"material":1}],"name":"room1"},{"primitives":[{"attributes":{"POSITION":25,"NORMAL":26,"TEXCOORD_0":27},"indices":24,"material":2}],"name":"building_base"},{"primitives":[{"attributes":{"POSITION":29,"NORMAL":30,"TEXCOORD_0":31},"indices":28,"material":3}],"name":"park"},{"primitives":[{"attributes":{"POSITION":33,"NORMAL":34,"TEXCOORD_0":35},"indices":32,"material":4}],"name":"tree00"},{"primitives":[{"attributes":{"POSITION":37,"NORMAL":38,"TEXCOORD_0":39},"indices":36,"material":4}],"name":"tree01"},{"primitives":[{"attributes":{"POSITION":41,"NORMAL":42,"TEXCOORD_0":43},"indices":40,"material":4}],"name":"tree02"},{"primitives":[{"attributes":{"POSITION":45,"NORMAL":46,"TEXCOORD_0":47},"indices":44,"material":4}],"name":"tree03"},{"primitives":[{"attributes":{"POSITION":49,"NORMAL":50,"TEXCOORD_0":51},"indices":48,"material":4}],"name":"tree04"},{"primitives":[{"attributes":{"POSITION":53,"NORMAL":54,"TEXCOORD_0":55},"indices":52,"material":4}],"name":"tree005"},{"primitives":[{"attributes":{"POSITION":57,"NORMAL":58,"TEXCOORD_0":59},"indices":56,"material":4}],"name":"tree006"},{"primitives":[{"attributes":{"POSITION":61,"NORMAL":62,"TEXCOORD_0":63},"indices":60,"material":4}],"name":"tree007"},{"primitives":[{"attributes":{"POSITION":65,"NORMAL":66,"TEXCOORD_0":67},"indices":64,"material":4}],"name":"tree008"},{"primitives":[{"attributes":{"POSITION":69,"NORMAL":70,"TEXCOORD_0":71},"indices":68,"material":4}],"name":"tree009"},{"primitives":[{"attributes":{"POSITION":73,"NORMAL":74,"TEXCOORD_0":75},"indices":72,"material":4}],"name":"tree010"},{"primitives":[{"attributes":{"POSITION":77,"NORMAL":78,"TEXCOORD_0":79},"indices":76,"material":4}],"name":"tree011"},{"primitives":[{"attributes":{"POSITION":81,"NORMAL":82,"TEXCOORD_0":83},"indices":80,"material":4}],"name":"tree012"},{"primitives":[{"attributes":{"POSITION":85,"NORMAL":86,"TEXCOORD_0":87},"indices":84,"material":4}],"name":"tree013"},{"primitives":[{"attributes":{"POSITION":89,"NORMAL":90},"indices":88,"material":4}],"name":"paths_Retopo"},{"primitives":[{"attributes":{"POSITION":92,"NORMAL":93},"indices":91,"material":5}],"name":"Lake_Retopo"}],"accessors":[{"bufferView":0,"componentType":5123,"count":4896,"type":"SCALAR","name":"accessorIndices"},{"bufferView":1,"componentType":5126,"count":1656,"max":[1.28844833,0.0500000045,0.6352903],"min":[-1.28844833,-0.0500000045,-0.6346624],"type":"VEC3","name":"accessorPositions"},{"bufferView":1,"byteOffset":19872,"componentType":5126,"count":1656,"type":"VEC3","name":"accessorNormals"},{"bufferView":2,"componentType":5126,"count":1656,"type":"VEC2","name":"accessorUVs"},{"bufferView":0,"byteOffset":9792,"componentType":5123,"count":5016,"type":"SCALAR","name":"accessorIndices"},{"bufferView":1,"byteOffset":39744,"componentType":5126,"count":1700,"max":[1.28844833,0.05,0.6352903],"min":[-1.28844833,-0.05,-0.6346624],"type":"VEC3","name":"accessorPositions"},{"bufferView":1,"byteOffset":60144,"componentType":5126,"count":1700,"type":"VEC3","name":"accessorNormals"},{"bufferView":2,"byteOffset":13248,"componentType":5126,"count":1700,"type":"VEC2","name":"accessorUVs"},{"bufferView":0,"byteOffset":19824,"componentType":5123,"count":852,"type":"SCALAR","name":"accessorIndices"},{"bufferView":1,"byteOffset":80544,"componentType":5126,"count":302,"max":[1.28844833,0.05,0.24703981],"min":[-1.28844833,-0.05,-0.6346624],"type":"VEC3","name":"accessorPositions"},{"bufferView":1,"byteOffset":84168,"componentType":5126,"count":302,"type":"VEC3","name":"accessorNormals"},{"bufferView":2,"byteOffset":26848,"componentType":5126,"count":302,"type":"VEC2","name":"accessorUVs"},{"bufferView":0,"byteOffset":21528,"componentType":5123,"count":1308,"type":"SCALAR","name":"accessorIndices"},{"bufferView":1,"byteOffset":87792,"componentType":5126,"count":454,"max":[1.28844833,0.05,0.6352903],"min":[-1.28844833,-0.05,-0.6346624],"type":"VEC3","name":"accessorPositions"},{"bufferView":1,"byteOffset":93240,"componentType":5126,"count":454,"type":"VEC3","name":"accessorNormals"},{"bufferView":2,"byteOffset":29264,"componentType":5126,"count":454,"type":"VEC2","name":"accessorUVs"},{"bufferView":0,"byteOffset":24144,"componentType":5123,"count":324,"type":"SCALAR","name":"accessorIndices"},{"bufferView":1,"byteOffset":98688,"componentType":5126,"count":120,"max":[0.362456083,0.198900566,0.273432076],"min":[-0.362456053,0.0,-0.273432136],"type":"VEC3","name":"accessorPositions"},{"bufferView":1,"byteOffset":100128,"componentType":5126,"count":120,"type":"VEC3","name":"accessorNormals"},{"bufferView":2,"byteOffset":32896,"componentType":5126,"count":120,"type":"VEC2","name":"accessorUVs"},{"bufferView":0,"byteOffset":24792,"componentType":5123,"count":324,"type":"SCALAR","name":"accessorIndices"},{"bufferView":1,"byteOffset":101568,"componentType":5126,"count":120,"max":[0.362456024,0.19890058,0.273432],"min":[-0.362456053,-1.71796675E-08,-0.2734321],"type":"VEC3","name":"accessorPositions"},{"bufferView":1,"byteOffset":103008,"componentType":5126,"count":120,"type":"VEC3","name":"accessorNormals"},{"bufferView":2,"byteOffset":33856,"componentType":5126,"count":120,"type":"VEC2","name":"accessorUVs"},{"bufferView":0,"byteOffset":25440,"componentType":5123,"count":48,"type":"SCALAR","name":"accessorIndices"},{"bufferView":1,"byteOffset":104448,"componentType":5126,"count":34,"max":[1.4,0.0,1.75],"min":[-1.4,-0.02,0.1942821],"type":"VEC3","name":"accessorPositions"},{"bufferView":1,"byteOffset":104856,"componentType":5126,"count":34,"type":"VEC3","name":"accessorNormals"},{"bufferView":2,"byteOffset":34816,"componentType":5126,"count":34,"type":"VEC2","name":"accessorUVs"},{"bufferView":0,"byteOffset":25536,"componentType":5123,"count":48,"type":"SCALAR","name":"accessorIndices"},{"bufferView":1,"byteOffset":105264,"componentType":5126,"count":34,"max":[1.4,0.0,0.5835244],"min":[-1.4,-0.02,-1.75],"type":"VEC3","name":"accessorPositions"},{"bufferView":1,"byteOffset":105672,"componentType":5126,"count":34,"type":"VEC3","name":"accessorNormals"},{"bufferView":2,"byteOffset":35088,"componentType":5126,"count":34,"type":"VEC2","name":"accessorUVs"},{"bufferView":0,"byteOffset":25632,"componentType":5123,"count":480,"type":"SCALAR","name":"accessorIndices"},{"bufferView":1,"byteOffset":106080,"componentType":5126,"count":390,"max":[0.0549246557,0.208825961,0.05413573],"min":[-0.04902742,0.0,-0.0536878],"type":"VEC3","name":"accessorPositions"},{"bufferView":1,"byteOffset":110760,"componentType":5126,"count":390,"type":"VEC3","name":"accessorNormals"},{"bufferView":2,"byteOffset":35360,"componentType":5126,"count":390,"type":"VEC2","name":"accessorUVs"},{"bufferView":0,"byteOffset":26592,"componentType":5123,"count":480,"type":"SCALAR","name":"accessorIndices"},{"bufferView":1,"byteOffset":115440,"componentType":5126,"count":390,"max":[0.0499894246,0.205137089,0.0554035567],"min":[-0.0562730432,0.0,-0.0512651466],"type":"VEC3","name":"accessorPositions"},{"bufferView":1,"byteOffset":120120,"componentType":5126,"count":390,"type":"VEC3","name":"accessorNormals"},{"bufferView":2,"byteOffset":38480,"componentType":5126,"count":390,"type":"VEC2","name":"accessorUVs"},{"bufferView":0,"byteOffset":27552,"componentType":5123,"count":480,"type":"SCALAR","name":"accessorIndices"},{"bufferView":1,"byteOffset":124800,"componentType":5126,"count":390,"max":[0.05659274,0.21277611,0.0501053035],"min":[-0.0492044352,0.0,-0.0551696867],"type":"VEC3","name":"accessorPositions"},{"bufferView":1,"byteOffset":129480,"componentType":5126,"count":390,"type":"VEC3","name":"accessorNormals"},{"bufferView":2,"byteOffset":41600,"componentType":5126,"count":390,"type":"VEC2","name":"accessorUVs"},{"bufferView":0,"byteOffset":28512,"componentType":5123,"count":480,"type":"SCALAR","name":"accessorIndices"},{"bufferView":1,"byteOffset":134160,"componentType":5126,"count":390,"max":[0.0583138578,0.208195284,0.0609624051],"min":[-0.0607661381,0.0,-0.0557714067],"type":"VEC3","name":"accessorPositions"},{"bufferView":1,"byteOffset":138840,"componentType":5126,"count":390,"type":"VEC3","name":"accessorNormals"},{"bufferView":2,"byteOffset":44720,"componentType":5126,"count":390,"type":"VEC2","name":"accessorUVs"},{"bufferView":0,"byteOffset":29472,"componentType":5123,"count":480,"type":"SCALAR","name":"accessorIndices"},{"bufferView":1,"byteOffset":143520,"componentType":5126,"count":390,"max":[0.0508380421,0.207986042,0.0563334078],"min":[-0.05552556,0.0,-0.05525125],"type":"VEC3","name":"accessorPositions"},{"bufferView":1,"byteOffset":148200,"componentType":5126,"count":390,"type":"VEC3","name":"accessorNormals"},{"bufferView":2,"byteOffset":47840,"componentType":5126,"count":390,"type":"VEC2","name":"accessorUVs"},{"bufferView":0,"byteOffset":30432,"componentType":5123,"count":480,"type":"SCALAR","name":"accessorIndices"},{"bufferView":1,"byteOffset":152880,"componentType":5126,"count":390,"max":[0.0549246557,0.208825961,0.05413573],"min":[-0.04902742,0.0,-0.0536878],"type":"VEC3","name":"accessorPositions"},{"bufferView":1,"byteOffset":157560,"componentType":5126,"count":390,"type":"VEC3","name":"accessorNormals"},{"bufferView":2,"byteOffset":50960,"componentType":5126,"count":390,"type":"VEC2","name":"accessorUVs"},{"bufferView":0,"byteOffset":31392,"componentType":5123,"count":480,"type":"SCALAR","name":"accessorIndices"},{"bufferView":1,"byteOffset":162240,"componentType":5126,"count":390,"max":[0.0499894246,0.205137119,0.0554035567],"min":[-0.0562730432,1.21116637E-08,-0.0512651466],"type":"VEC3","name":"accessorPositions"},{"bufferView":1,"byteOffset":166920,"componentType":5126,"count":390,"type":"VEC3","name":"accessorNormals"},{"bufferView":2,"byteOffset":54080,"componentType":5126,"count":390,"type":"VEC2","name":"accessorUVs"},{"bufferView":0,"byteOffset":32352,"componentType":5123,"count":480,"type":"SCALAR","name":"accessorIndices"},{"bufferView":1,"byteOffset":171600,"componentType":5126,"count":390,"max":[0.05659274,0.212776139,0.0501053035],"min":[-0.0492044352,1.21116637E-08,-0.0551696867],"type":"VEC3","name":"accessorPositions"},{"bufferView":1,"byteOffset":176280,"componentType":5126,"count":390,"type":"VEC3","name":"accessorNormals"},{"bufferView":2,"byteOffset":57200,"componentType":5126,"count":390,"type":"VEC2","name":"accessorUVs"},{"bufferView":0,"byteOffset":33312,"componentType":5123,"count":480,"type":"SCALAR","name":"accessorIndices"},{"bufferView":1,"byteOffset":180960,"componentType":5126,"count":390,"max":[0.0549246557,0.208825961,0.05413573],"min":[-0.04902742,0.0,-0.0536878],"type":"VEC3","name":"accessorPositions"},{"bufferView":1,"byteOffset":185640,"componentType":5126,"count":390,"type":"VEC3","name":"accessorNormals"},{"bufferView":2,"byteOffset":60320,"componentType":5126,"count":390,"type":"VEC2","name":"accessorUVs"},{"bufferView":0,"byteOffset":34272,"componentType":5123,"count":480,"type":"SCALAR","name":"accessorIndices"},{"bufferView":1,"byteOffset":190320,"componentType":5126,"count":390,"max":[0.0549246557,0.208825961,0.05413573],"min":[-0.04902742,1.21116637E-08,-0.0536878],"type":"VEC3","name":"accessorPositions"},{"bufferView":1,"byteOffset":195000,"componentType":5126,"count":390,"type":"VEC3","name":"accessorNormals"},{"bufferView":2,"byteOffset":63440,"componentType":5126,"count":390,"type":"VEC2","name":"accessorUVs"},{"bufferView":0,"byteOffset":35232,"componentType":5123,"count":480,"type":"SCALAR","name":"accessorIndices"},{"bufferView":1,"byteOffset":199680,"componentType":5126,"count":390,"max":[0.0499894246,0.205137089,0.0554035567],"min":[-0.0562730432,0.0,-0.0512651466],"type":"VEC3","name":"accessorPositions"},{"bufferView":1,"byteOffset":204360,"componentType":5126,"count":390,"type":"VEC3","name":"accessorNormals"},{"bufferView":2,"byteOffset":66560,"componentType":5126,"count":390,"type":"VEC2","name":"accessorUVs"},{"bufferView":0,"byteOffset":36192,"componentType":5123,"count":480,"type":"SCALAR","name":"accessorIndices"},{"bufferView":1,"byteOffset":209040,"componentType":5126,"count":390,"max":[0.05659274,0.212776139,0.0501053035],"min":[-0.0492044352,1.21116637E-08,-0.0551696867],"type":"VEC3","name":"accessorPositions"},{"bufferView":1,"byteOffset":213720,"componentType":5126,"count":390,"type":"VEC3","name":"accessorNormals"},{"bufferView":2,"byteOffset":69680,"componentType":5126,"count":390,"type":"VEC2","name":"accessorUVs"},{"bufferView":0,"byteOffset":37152,"componentType":5123,"count":480,"type":"SCALAR","name":"accessorIndices"},{"bufferView":1,"byteOffset":218400,"componentType":5126,"count":390,"max":[0.0583138578,0.208195284,0.0609624051],"min":[-0.0607661381,0.0,-0.0557714067],"type":"VEC3","name":"accessorPositions"},{"bufferView":1,"byteOffset":223080,"componentType":5126,"count":390,"type":"VEC3","name":"accessorNormals"},{"bufferView":2,"byteOffset":72800,"componentType":5126,"count":390,"type":"VEC2","name":"accessorUVs"},{"bufferView":0,"byteOffset":38112,"componentType":5123,"count":480,"type":"SCALAR","name":"accessorIndices"},{"bufferView":1,"byteOffset":227760,"componentType":5126,"count":390,"max":[0.0508380421,0.207986042,0.0563334078],"min":[-0.05552556,0.0,-0.05525125],"type":"VEC3","name":"accessorPositions"},{"bufferView":1,"byteOffset":232440,"componentType":5126,"count":390,"type":"VEC3","name":"accessorNormals"},{"bufferView":2,"byteOffset":75920,"componentType":5126,"count":390,"type":"VEC2","name":"accessorUVs"},{"bufferView":0,"byteOffset":39072,"componentType":5123,"count":34968,"type":"SCALAR","name":"accessorIndices"},{"bufferView":1,"byteOffset":237120,"componentType":5126,"count":8063,"max":[1.50208938,0.002000056,1.00125134],"min":[-1.29791045,-2.037338E-08,-1.33100271],"type":"VEC3","name":"accessorPositions"},{"bufferView":1,"byteOffset":333876,"componentType":5126,"count":8063,"type":"VEC3","name":"accessorNormals"},{"bufferView":0,"byteOffset":109008,"componentType":5123,"count":6084,"type":"SCALAR","name":"accessorIndices"},{"bufferView":1,"byteOffset":430632,"componentType":5126,"count":1198,"max":[0.139304489,0.001,0.150674582],"min":[-0.12210983,-4.40547444E-20,-0.154470056],"type":"VEC3","name":"accessorPositions"},{"bufferView":1,"byteOffset":445008,"componentType":5126,"count":1198,"type":"VEC3","name":"accessorNormals"}],"bufferViews":[{"buffer":0,"byteLength":121176,"name":"bufferViewScalar"},{"buffer":0,"byteOffset":121176,"byteLength":459384,"byteStride":12,"name":"bufferViewFloatVec3"},{"buffer":0,"byteOffset":580560,"byteLength":79040,"byteStride":8,"name":"bufferViewFloatVec2"}],"buffers":[{"uri":"campus.bin","byteLength":659600}],"materials":[{"pbrMetallicRoughness":{"baseColorTexture":{"index":0},"metallicFactor":0.0,"roughnessFactor":0.6},"alphaMode":"BLEND","doubleSided":true,"name":"building","extras":{"babylonSeparateCullingPass":false}},{"pbrMetallicRoughness":{"baseColorTexture":{"index":1},"metallicFactor":0.0,"roughnessFactor":0.6},"alphaMode":"BLEND","doubleSided":true,"name":"rooms","extras":{"babylonSeparateCullingPass":false}},{"pbrMetallicRoughness":{"baseColorFactor":[0.839,0.839,0.839,1.0],"metallicFactor":0.0,"roughnessFactor":0.85},"doubleSided":true,"name":"base_concrate","extras":{"babylonSeparateCullingPass":false}},{"pbrMetallicRoughness":{"metallicFactor":0.0,"roughnessFactor":0.85},"doubleSided":true,"name":"park","extras":{"babylonSeparateCullingPass":false}},{"pbrMetallicRoughness":{"metallicFactor":0.0,"roughnessFactor":0.6},"doubleSided":true,"name":"tree_path","extras":{"babylonSeparateCullingPass":false}},{"pbrMetallicRoughness":{"baseColorFactor":[0.75686276,0.8784314,0.956862748,1.0],"metallicFactor":0.0,"roughnessFactor":0.6},"doubleSided":true,"name":"lake","extras":{"babylonSeparateCullingPass":false}}],"textures":[{"sampler":0,"source":0,"name":"91173226_alpha_Map__32.png"},{"sampler":0,"source":1,"name":"13021973_alpha_Map__32.png"}],"images":[{"uri":"91173226_alpha_Map__32.png"},{"uri":"13021973_alpha_Map__32.png"}],"samplers":[{"magFilter":9729,"minFilter":9987}]}