{"asset":{"version":"2.0","generator":"babylon.js glTF exporter for 3dsmax 2022 v20210811.2"},"scene":0,"scenes":[{"nodes":[0,1,2,17,18,19,20,21,22,23,24]}],"nodes":[{"mesh":0,"translation":[0.0,0.0,-0.319495171],"name":"building_base"},{"mesh":1,"translation":[0.0,0.0,-0.319495171],"name":"park"},{"children":[3,4,5,6,7,8,9,10,11,12,13,14,15,16],"translation":[-0.237399027,0.180328339,-1.07565272],"name":"trees"},{"mesh":2,"translation":[0.718269348,-0.180328339,-0.2592022],"scale":[1.22592854,1.22592854,1.22592854],"name":"tree00"},{"mesh":3,"translation":[0.6841273,-0.180328339,-0.551938],"scale":[1.52245,1.52245,1.52245],"name":"tree01"},{"mesh":4,"translation":[0.418178767,-0.180328339,-0.5080231],"rotation":[0.0,0.461748719,0.0,0.887010753],"scale":[1.52244961,1.3918364,1.52244961],"name":"tree02"},{"mesh":5,"translation":[0.8135077,-0.180328339,-0.759715259],"rotation":[0.0,0.5735765,0.0,0.819152],"scale":[1.52245009,1.34048939,1.52245009],"name":"tree03"},{"mesh":6,"translation":[0.9063408,-0.180328339,-0.00300272368],"scale":[1.52245,1.30888236,1.52245],"name":"tree04"},{"mesh":7,"translation":[0.8153918,-0.180328339,0.2262515],"rotation":[0.0,0.7071068,0.0,0.7071067],"scale":[1.52245,1.52245,1.52245],"name":"tree005"},{"mesh":8,"translation":[1.03463662,-0.180328339,0.456706434],"rotation":[0.0,-0.6755903,0.0,0.737277269],"scale":[1.52245009,1.39150965,1.52245009],"name":"tree006"},{"mesh":9,"translation":[0.101842061,-0.180328339,-0.638903439],"rotation":[0.0,-0.6755901,0.0,0.737277448],"scale":[1.52245009,1.52245,1.52245009],"name":"tree007"},{"mesh":10,"translation":[-0.430204928,-0.180328339,-0.634704053],"scale":[1.52245,1.52245,1.52245],"name":"tree008"},{"mesh":11,"translation":[-1.03183234,-0.180328339,0.1761375],"rotation":[0.0,0.6755902,0.0,0.7372773],"scale":[1.52245009,1.14208293,1.52245009],"name":"tree009"},{"mesh":12,"translation":[-0.5283792,-0.180328339,0.366221249],"rotation":[0.0,-0.9063078,0.0,-0.42261824],"scale":[1.75812519,1.75812519,1.75812519],"name":"tree010"},{"mesh":13,"translation":[-0.5284553,-0.180328339,-0.231642827],"rotation":[0.0,-0.999048233,0.0,0.04361966],"scale":[1.37600827,1.37600827,1.37600827],"name":"tree011"},{"mesh":14,"translation":[-0.996295,-0.180328339,-0.354881048],"rotation":[0.0,-0.7071068,0.0,0.7071067],"scale":[1.52245,1.52245,1.52245],"name":"tree012"},{"mesh":15,"translation":[-0.6138037,-0.180328339,0.7746788],"rotation":[0.0,-0.866025448,0.0,-0.49999994],"scale":[1.52245009,1.52245,1.52245009],"name":"tree013"},{"mesh":16,"translation":[-0.102089427,0.0,-0.7384933],"name":"paths_Retopo"},{"mesh":17,"translation":[-0.5981985,0.0009999999,-0.5609341],"name":"Lake_Retopo"},{"mesh":18,"translation":[3.19747915E-06,0.05,0.6931765],"scale":[1.0,0.999,1.0],"name":"floor_0"},{"mesh":19,"translation":[3.19747915E-06,0.150000051,0.6931765],"scale":[1.0,0.999,1.0],"name":"floor_1"},{"mesh":20,"translation":[3.19747915E-06,0.35,0.6931766],"scale":[1.0,0.999,1.0],"name":"floor_3"},{"mesh":21,"translation":[-0.69691354,4.99848356E-05,0.475030541],"scale":[0.98999995,0.98999995,0.98999995],"name":"room2"},{"mesh":22,"translation":[0.6969188,4.99969465E-05,0.475030929],"scale":[0.98999995,0.98999995,0.98999995],"name":"room1"},{"mesh":23,"translation":[3.100586E-06,0.2500001,0.6931765],"scale":[1.0,0.999,1.0],"name":"floor_2"}],"meshes":[{"primitives":[{"attributes":{"POSITION":1,"NORMAL":2,"TEXCOORD_0":3},"indices":0,"material":0}],"name":"building_base"},{"primitives":[{"attributes":{"POSITION":5,"NORMAL":6,"TEXCOORD_0":7},"indices":4,"material":1}],"name":"park"},{"primitives":[{"attributes":{"POSITION":9,"NORMAL":10,"TEXCOORD_0":11},"indices":8,"material":2}],"name":"tree00"},{"primitives":[{"attributes":{"POSITION":13,"NORMAL":14,"TEXCOORD_0":15},"indices":12,"material":2}],"name":"tree01"},{"primitives":[{"attributes":{"POSITION":17,"NORMAL":18,"TEXCOORD_0":19},"indices":16,"material":2}],"name":"tree02"},{"primitives":[{"attributes":{"POSITION":21,"NORMAL":22,"TEXCOORD_0":23},"indices":20,"material":2}],"name":"tree03"},{"primitives":[{"attributes":{"POSITION":25,"NORMAL":26,"TEXCOORD_0":27},"indices":24,"material":2}],"name":"tree04"},{"primitives":[{"attributes":{"POSITION":29,"NORMAL":30,"TEXCOORD_0":31},"indices":28,"material":2}],"name":"tree005"},{"primitives":[{"attributes":{"POSITION":33,"NORMAL":34,"TEXCOORD_0":35},"indices":32,"material":2}],"name":"tree006"},{"primitives":[{"attributes":{"POSITION":37,"NORMAL":38,"TEXCOORD_0":39},"indices":36,"material":2}],"name":"tree007"},{"primitives":[{"attributes":{"POSITION":41,"NORMAL":42,"TEXCOORD_0":43},"indices":40,"material":2}],"name":"tree008"},{"primitives":[{"attributes":{"POSITION":45,"NORMAL":46,"TEXCOORD_0":47},"indices":44,"material":2}],"name":"tree009"},{"primitives":[{"attributes":{"POSITION":49,"NORMAL":50,"TEXCOORD_0":51},"indices":48,"material":2}],"name":"tree010"},{"primitives":[{"attributes":{"POSITION":53,"NORMAL":54,"TEXCOORD_0":55},"indices":52,"material":2}],"name":"tree011"},{"primitives":[{"attributes":{"POSITION":57,"NORMAL":58,"TEXCOORD_0":59},"indices":56,"material":2}],"name":"tree012"},{"primitives":[{"attributes":{"POSITION":61,"NORMAL":62,"TEXCOORD_0":63},"indices":60,"material":2}],"name":"tree013"},{"primitives":[{"attributes":{"POSITION":65,"NORMAL":66},"indices":64,"material":2}],"name":"paths_Retopo"},{"primitives":[{"attributes":{"POSITION":68,"NORMAL":69},"indices":67,"material":3}],"name":"Lake_Retopo"},{"primitives":[{"attributes":{"POSITION":71,"NORMAL":72,"TEXCOORD_0":73},"indices":70,"material":4}],"name":"floor_0"},{"primitives":[{"attributes":{"POSITION":75,"NORMAL":76,"TEXCOORD_0":77},"indices":74,"material":4}],"name":"floor_1"},{"primitives":[{"attributes":{"POSITION":79,"NORMAL":80,"TEXCOORD_0":81},"indices":78,"material":4}],"name":"floor_3"},{"primitives":[{"attributes":{"POSITION":83,"NORMAL":84,"TEXCOORD_0":85},"indices":82,"material":5}],"name":"room2"},{"primitives":[{"attributes":{"POSITION":87,"NORMAL":88,"TEXCOORD_0":89},"indices":86,"material":5}],"name":"room1"},{"primitives":[{"attributes":{"POSITION":91,"NORMAL":92,"TEXCOORD_0":93},"indices":90,"material":4}],"name":"floor_2"}],"accessors":[{"bufferView":0,"componentType":5123,"count":408,"type":"SCALAR","name":"accessorIndices"},{"bufferView":1,"componentType":5126,"count":70,"max":[1.4,0.0,1.75],"min":[-1.4,-0.02,0.194953874],"type":"VEC3","name":"accessorPositions"},{"bufferView":1,"byteOffset":840,"componentType":5126,"count":70,"type":"VEC3","name":"accessorNormals"},{"bufferView":2,"componentType":5126,"count":70,"type":"VEC2","name":"accessorUVs"},{"bufferView":0,"byteOffset":816,"componentType":5123,"count":408,"type":"SCALAR","name":"accessorIndices"},{"bufferView":1,"byteOffset":1680,"componentType":5126,"count":70,"max":[1.4,0.0,0.583209634],"min":[-1.4,-0.02,-1.75],"type":"VEC3","name":"accessorPositions"},{"bufferView":1,"byteOffset":2520,"componentType":5126,"count":70,"type":"VEC3","name":"accessorNormals"},{"bufferView":2,"byteOffset":560,"componentType":5126,"count":70,"type":"VEC2","name":"accessorUVs"},{"bufferView":0,"byteOffset":1632,"componentType":5123,"count":480,"type":"SCALAR","name":"accessorIndices"},{"bufferView":1,"byteOffset":3360,"componentType":5126,"count":390,"max":[0.0549246557,0.208825961,0.05413573],"min":[-0.04902742,0.0,-0.0536878],"type":"VEC3","name":"accessorPositions"},{"bufferView":1,"byteOffset":8040,"componentType":5126,"count":390,"type":"VEC3","name":"accessorNormals"},{"bufferView":2,"byteOffset":1120,"componentType":5126,"count":390,"type":"VEC2","name":"accessorUVs"},{"bufferView":0,"byteOffset":2592,"componentType":5123,"count":480,"type":"SCALAR","name":"accessorIndices"},{"bufferView":1,"byteOffset":12720,"componentType":5126,"count":390,"max":[0.0499894246,0.205137089,0.0554035567],"min":[-0.0562730432,0.0,-0.0512651466],"type":"VEC3","name":"accessorPositions"},{"bufferView":1,"byteOffset":17400,"componentType":5126,"count":390,"type":"VEC3","name":"accessorNormals"},{"bufferView":2,"byteOffset":4240,"componentType":5126,"count":390,"type":"VEC2","name":"accessorUVs"},{"bufferView":0,"byteOffset":3552,"componentType":5123,"count":480,"type":"SCALAR","name":"accessorIndices"},{"bufferView":1,"byteOffset":22080,"componentType":5126,"count":390,"max":[0.05659274,0.21277611,0.0501053035],"min":[-0.0492044352,0.0,-0.0551696867],"type":"VEC3","name":"accessorPositions"},{"bufferView":1,"byteOffset":26760,"componentType":5126,"count":390,"type":"VEC3","name":"accessorNormals"},{"bufferView":2,"byteOffset":7360,"componentType":5126,"count":390,"type":"VEC2","name":"accessorUVs"},{"bufferView":0,"byteOffset":4512,"componentType":5123,"count":480,"type":"SCALAR","name":"accessorIndices"},{"bufferView":1,"byteOffset":31440,"componentType":5126,"count":390,"max":[0.0583138578,0.208195284,0.0609624051],"min":[-0.0607661381,0.0,-0.0557714067],"type":"VEC3","name":"accessorPositions"},{"bufferView":1,"byteOffset":36120,"componentType":5126,"count":390,"type":"VEC3","name":"accessorNormals"},{"bufferView":2,"byteOffset":10480,"componentType":5126,"count":390,"type":"VEC2","name":"accessorUVs"},{"bufferView":0,"byteOffset":5472,"componentType":5123,"count":480,"type":"SCALAR","name":"accessorIndices"},{"bufferView":1,"byteOffset":40800,"componentType":5126,"count":390,"max":[0.0508380421,0.207986042,0.0563334078],"min":[-0.05552556,0.0,-0.05525125],"type":"VEC3","name":"accessorPositions"},{"bufferView":1,"byteOffset":45480,"componentType":5126,"count":390,"type":"VEC3","name":"accessorNormals"},{"bufferView":2,"byteOffset":13600,"componentType":5126,"count":390,"type":"VEC2","name":"accessorUVs"},{"bufferView":0,"byteOffset":6432,"componentType":5123,"count":480,"type":"SCALAR","name":"accessorIndices"},{"bufferView":1,"byteOffset":50160,"componentType":5126,"count":390,"max":[0.0549246557,0.208825961,0.05413573],"min":[-0.04902742,0.0,-0.0536878],"type":"VEC3","name":"accessorPositions"},{"bufferView":1,"byteOffset":54840,"componentType":5126,"count":390,"type":"VEC3","name":"accessorNormals"},{"bufferView":2,"byteOffset":16720,"componentType":5126,"count":390,"type":"VEC2","name":"accessorUVs"},{"bufferView":0,"byteOffset":7392,"componentType":5123,"count":480,"type":"SCALAR","name":"accessorIndices"},{"bufferView":1,"byteOffset":59520,"componentType":5126,"count":390,"max":[0.0499894246,0.205137119,0.0554035567],"min":[-0.0562730432,1.21116637E-08,-0.0512651466],"type":"VEC3","name":"accessorPositions"},{"bufferView":1,"byteOffset":64200,"componentType":5126,"count":390,"type":"VEC3","name":"accessorNormals"},{"bufferView":2,"byteOffset":19840,"componentType":5126,"count":390,"type":"VEC2","name":"accessorUVs"},{"bufferView":0,"byteOffset":8352,"componentType":5123,"count":480,"type":"SCALAR","name":"accessorIndices"},{"bufferView":1,"byteOffset":68880,"componentType":5126,"count":390,"max":[0.05659274,0.212776139,0.0501053035],"min":[-0.0492044352,1.21116637E-08,-0.0551696867],"type":"VEC3","name":"accessorPositions"},{"bufferView":1,"byteOffset":73560,"componentType":5126,"count":390,"type":"VEC3","name":"accessorNormals"},{"bufferView":2,"byteOffset":22960,"componentType":5126,"count":390,"type":"VEC2","name":"accessorUVs"},{"bufferView":0,"byteOffset":9312,"componentType":5123,"count":480,"type":"SCALAR","name":"accessorIndices"},{"bufferView":1,"byteOffset":78240,"componentType":5126,"count":390,"max":[0.0549246557,0.208825961,0.05413573],"min":[-0.04902742,0.0,-0.0536878],"type":"VEC3","name":"accessorPositions"},{"bufferView":1,"byteOffset":82920,"componentType":5126,"count":390,"type":"VEC3","name":"accessorNormals"},{"bufferView":2,"byteOffset":26080,"componentType":5126,"count":390,"type":"VEC2","name":"accessorUVs"},{"bufferView":0,"byteOffset":10272,"componentType":5123,"count":480,"type":"SCALAR","name":"accessorIndices"},{"bufferView":1,"byteOffset":87600,"componentType":5126,"count":390,"max":[0.0549246557,0.208825961,0.05413573],"min":[-0.04902742,1.21116637E-08,-0.0536878],"type":"VEC3","name":"accessorPositions"},{"bufferView":1,"byteOffset":92280,"componentType":5126,"count":390,"type":"VEC3","name":"accessorNormals"},{"bufferView":2,"byteOffset":29200,"componentType":5126,"count":390,"type":"VEC2","name":"accessorUVs"},{"bufferView":0,"byteOffset":11232,"componentType":5123,"count":480,"type":"SCALAR","name":"accessorIndices"},{"bufferView":1,"byteOffset":96960,"componentType":5126,"count":390,"max":[0.0499894246,0.205137089,0.0554035567],"min":[-0.0562730432,0.0,-0.0512651466],"type":"VEC3","name":"accessorPositions"},{"bufferView":1,"byteOffset":101640,"componentType":5126,"count":390,"type":"VEC3","name":"accessorNormals"},{"bufferView":2,"byteOffset":32320,"componentType":5126,"count":390,"type":"VEC2","name":"accessorUVs"},{"bufferView":0,"byteOffset":12192,"componentType":5123,"count":480,"type":"SCALAR","name":"accessorIndices"},{"bufferView":1,"byteOffset":106320,"componentType":5126,"count":390,"max":[0.05659274,0.212776139,0.0501053035],"min":[-0.0492044352,1.21116637E-08,-0.0551696867],"type":"VEC3","name":"accessorPositions"},{"bufferView":1,"byteOffset":111000,"componentType":5126,"count":390,"type":"VEC3","name":"accessorNormals"},{"bufferView":2,"byteOffset":35440,"componentType":5126,"count":390,"type":"VEC2","name":"accessorUVs"},{"bufferView":0,"byteOffset":13152,"componentType":5123,"count":480,"type":"SCALAR","name":"accessorIndices"},{"bufferView":1,"byteOffset":115680,"componentType":5126,"count":390,"max":[0.0583138578,0.208195284,0.0609624051],"min":[-0.0607661381,0.0,-0.0557714067],"type":"VEC3","name":"accessorPositions"},{"bufferView":1,"byteOffset":120360,"componentType":5126,"count":390,"type":"VEC3","name":"accessorNormals"},{"bufferView":2,"byteOffset":38560,"componentType":5126,"count":390,"type":"VEC2","name":"accessorUVs"},{"bufferView":0,"byteOffset":14112,"componentType":5123,"count":480,"type":"SCALAR","name":"accessorIndices"},{"bufferView":1,"byteOffset":125040,"componentType":5126,"count":390,"max":[0.0508380421,0.207986042,0.0563334078],"min":[-0.05552556,0.0,-0.05525125],"type":"VEC3","name":"accessorPositions"},{"bufferView":1,"byteOffset":129720,"componentType":5126,"count":390,"type":"VEC3","name":"accessorNormals"},{"bufferView":2,"byteOffset":41680,"componentType":5126,"count":390,"type":"VEC2","name":"accessorUVs"},{"bufferView":0,"byteOffset":15072,"componentType":5123,"count":53742,"type":"SCALAR","name":"accessorIndices"},{"bufferView":1,"byteOffset":134400,"componentType":5126,"count":9729,"max":[1.50252247,0.00200553238,1.00116348],"min":[-1.29791045,-2.03313721E-08,-1.33100271],"type":"VEC3","name":"accessorPositions"},{"bufferView":1,"byteOffset":251148,"componentType":5126,"count":9729,"type":"VEC3","name":"accessorNormals"},{"bufferView":0,"byteOffset":122556,"componentType":5123,"count":7578,"type":"SCALAR","name":"accessorIndices"},{"bufferView":1,"byteOffset":367896,"componentType":5126,"count":1327,"max":[0.1393706,0.001,0.150740132],"min":[-0.122176,-0.000257249223,-0.154532567],"type":"VEC3","name":"accessorPositions"},{"bufferView":1,"byteOffset":383820,"componentType":5126,"count":1327,"type":"VEC3","name":"accessorNormals"},{"bufferView":0,"byteOffset":137712,"componentType":5123,"count":4896,"type":"SCALAR","name":"accessorIndices"},{"bufferView":1,"byteOffset":399744,"componentType":5126,"count":1008,"max":[1.28844833,0.0500000045,0.6352903],"min":[-1.28844833,-0.0500000045,-0.6346624],"type":"VEC3","name":"accessorPositions"},{"bufferView":1,"byteOffset":411840,"componentType":5126,"count":1008,"type":"VEC3","name":"accessorNormals"},{"bufferView":2,"byteOffset":44800,"componentType":5126,"count":1008,"type":"VEC2","name":"accessorUVs"},{"bufferView":0,"byteOffset":147504,"componentType":5123,"count":3000,"type":"SCALAR","name":"accessorIndices"},{"bufferView":1,"byteOffset":423936,"componentType":5126,"count":606,"max":[1.28844833,0.05,0.6352903],"min":[-1.28844833,-0.05,-0.6346624],"type":"VEC3","name":"accessorPositions"},{"bufferView":1,"byteOffset":431208,"componentType":5126,"count":606,"type":"VEC3","name":"accessorNormals"},{"bufferView":2,"byteOffset":52864,"componentType":5126,"count":606,"type":"VEC2","name":"accessorUVs"},{"bufferView":0,"byteOffset":153504,"componentType":5123,"count":684,"type":"SCALAR","name":"accessorIndices"},{"bufferView":1,"byteOffset":438480,"componentType":5126,"count":179,"max":[1.28844833,0.05,0.24703981],"min":[-1.28844833,-0.05,-0.6346624],"type":"VEC3","name":"accessorPositions"},{"bufferView":1,"byteOffset":440628,"componentType":5126,"count":179,"type":"VEC3","name":"accessorNormals"},{"bufferView":2,"byteOffset":57712,"componentType":5126,"count":179,"type":"VEC2","name":"accessorUVs"},{"bufferView":0,"byteOffset":154872,"componentType":5123,"count":324,"type":"SCALAR","name":"accessorIndices"},{"bufferView":1,"byteOffset":442776,"componentType":5126,"count":116,"max":[0.362456083,0.198900566,0.273432076],"min":[-0.362456053,0.0,-0.273432136],"type":"VEC3","name":"accessorPositions"},{"bufferView":1,"byteOffset":444168,"componentType":5126,"count":116,"type":"VEC3","name":"accessorNormals"},{"bufferView":2,"byteOffset":59144,"componentType":5126,"count":116,"type":"VEC2","name":"accessorUVs"},{"bufferView":0,"byteOffset":155520,"componentType":5123,"count":324,"type":"SCALAR","name":"accessorIndices"},{"bufferView":1,"byteOffset":445560,"componentType":5126,"count":116,"max":[0.362456024,0.19890058,0.273432],"min":[-0.362456053,-1.71796675E-08,-0.2734321],"type":"VEC3","name":"accessorPositions"},{"bufferView":1,"byteOffset":446952,"componentType":5126,"count":116,"type":"VEC3","name":"accessorNormals"},{"bufferView":2,"byteOffset":60072,"componentType":5126,"count":116,"type":"VEC2","name":"accessorUVs"},{"bufferView":0,"byteOffset":156168,"componentType":5123,"count":1608,"type":"SCALAR","name":"accessorIndices"},{"bufferView":1,"byteOffset":448344,"componentType":5126,"count":354,"max":[1.28844833,0.05,0.6352903],"min":[-1.28844833,-0.05,-0.6346624],"type":"VEC3","name":"accessorPositions"},{"bufferView":1,"byteOffset":452592,"componentType":5126,"count":354,"type":"VEC3","name":"accessorNormals"},{"bufferView":2,"byteOffset":61000,"componentType":5126,"count":354,"type":"VEC2","name":"accessorUVs"}],"bufferViews":[{"buffer":0,"byteLength":159384,"name":"bufferViewScalar"},{"buffer":0,"byteOffset":159384,"byteLength":456840,"byteStride":12,"name":"bufferViewFloatVec3"},{"buffer":0,"byteOffset":616224,"byteLength":63832,"byteStride":8,"name":"bufferViewFloatVec2"}],"buffers":[{"uri":"campus.bin","byteLength":680056}],"materials":[{"pbrMetallicRoughness":{"baseColorFactor":[0.839,0.839,0.839,1.0],"metallicFactor":0.0,"roughnessFactor":0.85},"doubleSided":true,"name":"base_concrate","extras":{"babylonSeparateCullingPass":false}},{"pbrMetallicRoughness":{"metallicFactor":0.0,"roughnessFactor":0.85},"doubleSided":true,"name":"park","extras":{"babylonSeparateCullingPass":false}},{"pbrMetallicRoughness":{"metallicFactor":0.0,"roughnessFactor":0.6},"doubleSided":true,"name":"tree_path","extras":{"babylonSeparateCullingPass":false}},{"pbrMetallicRoughness":{"baseColorFactor":[0.75686276,0.8784314,0.956862748,1.0],"metallicFactor":0.0,"roughnessFactor":0.6},"doubleSided":true,"name":"lake","extras":{"babylonSeparateCullingPass":false}},{"pbrMetallicRoughness":{"baseColorFactor":[1.0,1.0,1.0,0.199999988],"baseColorTexture":{"index":0},"metallicFactor":0.0,"roughnessFactor":0.6},"alphaMode":"BLEND","doubleSided":true,"name":"building","extras":{"babylonSeparateCullingPass":false}},{"pbrMetallicRoughness":{"baseColorFactor":[1.0,1.0,1.0,0.5],"baseColorTexture":{"index":1},"metallicFactor":0.0,"roughnessFactor":0.6},"alphaMode":"BLEND","doubleSided":true,"name":"rooms","extras":{"babylonSeparateCullingPass":false}}],"textures":[{"sampler":0,"source":0,"name":"202226242_alpha_Map__32.png"},{"sampler":0,"source":1,"name":"199242172_alpha_Map__33.png"}],"images":[{"uri":"202226242_alpha_Map__32.png"},{"uri":"199242172_alpha_Map__33.png"}],"samplers":[{"magFilter":9729,"minFilter":9987}]}